Coda-Caption-Medium.ufo
<glyph name="exclam" format="1">
  <advance width="654"/>
  <unicode hex="0021"/>
  <outline>
    <contour>
      <point x="326" y="516" type="curve" smooth="yes"/>
      <point x="342" y="516"/>
      <point x="360" y="529"/>
      <point x="366" y="566" type="curve" smooth="yes"/>
      <point x="411" y="898"/>
      <point x="489" y="1327"/>
      <point x="489" y="1415" type="curve" smooth="yes"/>
      <point x="489" y="1530"/>
      <point x="425" y="1589"/>
      <point x="325" y="1589" type="curve" smooth="yes"/>
      <point x="226" y="1589"/>
      <point x="164" y="1532"/>
      <point x="164" y="1416" type="curve" smooth="yes"/>
      <point x="164" y="1330"/>
      <point x="237" y="901"/>
      <point x="285" y="566" type="curve" smooth="yes"/>
      <point x="291" y="529"/>
      <point x="309" y="516"/>
    </contour>
    <contour>
      <point x="327" y="-29" type="curve" smooth="yes"/>
      <point x="409" y="-29"/>
      <point x="490" y="29"/>
      <point x="490" y="146" type="curve" smooth="yes"/>
      <point x="490" y="262"/>
      <point x="406" y="321"/>
      <point x="324" y="321" type="curve" smooth="yes"/>
      <point x="243" y="321"/>
      <point x="162" y="263"/>
      <point x="162" y="146" type="curve" smooth="yes"/>
      <point x="162" y="30"/>
      <point x="245" y="-29"/>
    </contour>
  </outline>
</glyph>
<glyph name="quotedbl" format="1">
  <advance width="919"/>
  <unicode hex="0022"/>
  <outline>
    <contour>
      <point x="274" y="887" type="curve" smooth="yes"/>
      <point x="282" y="887"/>
      <point x="299" y="894"/>
      <point x="302" y="911" type="curve" smooth="yes"/>
      <point x="319" y="995"/>
      <point x="399" y="1317"/>
      <point x="399" y="1411" type="curve" smooth="yes"/>
      <point x="399" y="1508"/>
      <point x="344" y="1557"/>
      <point x="273" y="1557" type="curve" smooth="yes"/>
      <point x="192" y="1557"/>
      <point x="149" y="1509"/>
      <point x="149" y="1403" type="curve" smooth="yes"/>
      <point x="149" y="1313"/>
      <point x="229" y="1000"/>
      <point x="245" y="914" type="curve" smooth="yes"/>
      <point x="249" y="897"/>
      <point x="266" y="887"/>
    </contour>
    <contour>
      <point x="653" y="887" type="curve" smooth="yes"/>
      <point x="661" y="887"/>
      <point x="677" y="894"/>
      <point x="680" y="911" type="curve" smooth="yes"/>
      <point x="697" y="995"/>
      <point x="777" y="1317"/>
      <point x="777" y="1411" type="curve" smooth="yes"/>
      <point x="777" y="1508"/>
      <point x="722" y="1557"/>
      <point x="651" y="1557" type="curve" smooth="yes"/>
      <point x="570" y="1557"/>
      <point x="528" y="1509"/>
      <point x="528" y="1403" type="curve" smooth="yes"/>
      <point x="528" y="1313"/>
      <point x="607" y="1000"/>
      <point x="624" y="914" type="curve" smooth="yes"/>
      <point x="628" y="897"/>
      <point x="644" y="887"/>
    </contour>
  </outline>
</glyph>
<glyph name="dollar" format="1">
  <advance width="1313"/>
  <unicode hex="0024"/>
  <outline>
    <component base="S"/>
    <contour>
      <point x="678" y="77" type="line"/>
      <point x="678" y="-238" type="line"/>
      <point x="787" y="-238" type="line"/>
      <point x="787" y="77" type="line"/>
    </contour>
    <contour>
      <point x="678" y="1771" type="line"/>
      <point x="678" y="1456" type="line"/>
      <point x="787" y="1456" type="line"/>
      <point x="787" y="1771" type="line"/>
    </contour>
  </outline>
</glyph>
<glyph name="percent" format="1">
  <advance width="2560"/>
  <unicode hex="0025"/>
  <outline>
    <contour>
      <point x="563" y="767" type="curve" smooth="yes"/>
      <point x="457" y="767"/>
      <point x="431" y="775"/>
      <point x="431" y="890" type="curve" smooth="yes"/>
      <point x="431" y="1211" type="line" smooth="yes"/>
      <point x="431" y="1338"/>
      <point x="459" y="1338"/>
      <point x="574" y="1338" type="curve" smooth="yes"/>
      <point x="695" y="1338"/>
      <point x="714" y="1337"/>
      <point x="714" y="1208" type="curve" smooth="yes"/>
      <point x="714" y="887" type="line" smooth="yes"/>
      <point x="714" y="776"/>
      <point x="689" y="767"/>
    </contour>
    <contour>
      <point x="573" y="599" type="curve" smooth="yes"/>
      <point x="819" y="599"/>
      <point x="960" y="642"/>
      <point x="960" y="912" type="curve" smooth="yes"/>
      <point x="960" y="962"/>
      <point x="960" y="1162"/>
      <point x="958" y="1198" type="curve" smooth="yes"/>
      <point x="949" y="1463"/>
      <point x="826" y="1507"/>
      <point x="572" y="1507" type="curve" smooth="yes"/>
      <point x="330" y="1507"/>
      <point x="188" y="1464"/>
      <point x="188" y="1195" type="curve" smooth="yes"/>
      <point x="188" y="1146"/>
      <point x="188" y="947"/>
      <point x="190" y="912" type="curve" smooth="yes"/>
      <point x="197" y="637"/>
      <point x="316" y="599"/>
    </contour>
    <contour>
      <point x="1978" y="320" type="curve" smooth="yes"/>
      <point x="1871" y="320"/>
      <point x="1846" y="327"/>
      <point x="1846" y="442" type="curve" smooth="yes"/>
      <point x="1846" y="464"/>
      <point x="1847" y="731"/>
      <point x="1847" y="763" type="curve" smooth="yes"/>
      <point x="1847" y="890"/>
      <point x="1873" y="890"/>
      <point x="1989" y="890" type="curve" smooth="yes"/>
      <point x="2110" y="890"/>
      <point x="2129" y="889"/>
      <point x="2129" y="760" type="curve" smooth="yes"/>
      <point x="2129" y="439" type="line" smooth="yes"/>
      <point x="2129" y="328"/>
      <point x="2103" y="320"/>
    </contour>
    <contour>
      <point x="1988" y="150" type="curve" smooth="yes"/>
      <point x="2233" y="150"/>
      <point x="2375" y="198"/>
      <point x="2375" y="463" type="curve" smooth="yes"/>
      <point x="2375" y="511"/>
      <point x="2375" y="709"/>
      <point x="2373" y="744" type="curve" smooth="yes"/>
      <point x="2365" y="1015"/>
      <point x="2244" y="1059"/>
      <point x="1987" y="1059" type="curve" smooth="yes"/>
      <point x="1744" y="1059"/>
      <point x="1603" y="1017"/>
      <point x="1603" y="746" type="curve" smooth="yes"/>
      <point x="1603" y="698"/>
      <point x="1603" y="500"/>
      <point x="1605" y="466" type="curve" smooth="yes"/>
      <point x="1612" y="193"/>
      <point x="1731" y="150"/>
    </contour>
    <contour>
      <point x="966" y="-17" type="line"/>
      <point x="1216" y="-17" type="line"/>
      <point x="1595" y="1599" type="line"/>
      <point x="1346" y="1599" type="line"/>
    </contour>
  </outline>
</glyph>
<glyph name="ampersand" format="1">
  <advance width="1577"/>
  <unicode hex="0026"/>
  <outline>
    <contour>
      <point x="716" y="-30" type="curve" smooth="yes"/>
      <point x="1133" y="-30"/>
      <point x="1316" y="99"/>
      <point x="1316" y="433" type="curve"/>
      <point x="1315" y="731" type="line"/>
      <point x="1456" y="732" type="line"/>
      <point x="1456" y="886" type="line"/>
      <point x="1316" y="886" type="line"/>
      <point x="1316" y="1009" type="line"/>
      <point x="999" y="1009" type="line"/>
      <point x="999" y="886" type="line"/>
      <point x="657" y="886" type="line" smooth="yes"/>
      <point x="602" y="886"/>
      <point x="531" y="910"/>
      <point x="528" y="1036" type="curve" smooth="yes"/>
      <point x="528" y="1254" type="line" smooth="yes"/>
      <point x="528" y="1344"/>
      <point x="613" y="1372"/>
      <point x="759" y="1372" type="curve" smooth="yes"/>
      <point x="851" y="1372"/>
      <point x="942" y="1370"/>
      <point x="970" y="1357" type="curve" smooth="yes"/>
      <point x="999" y="1343"/>
      <point x="1002" y="1228"/>
      <point x="1006" y="1183" type="curve"/>
      <point x="1303" y="1197" type="line"/>
      <point x="1304" y="1206"/>
      <point x="1305" y="1266"/>
      <point x="1305" y="1274" type="curve" smooth="yes"/>
      <point x="1305" y="1504"/>
      <point x="1110" y="1570"/>
      <point x="765" y="1570" type="curve" smooth="yes"/>
      <point x="394" y="1570"/>
      <point x="181" y="1503"/>
      <point x="181" y="1169" type="curve" smooth="yes"/>
      <point x="181" y="998"/>
      <point x="232" y="909"/>
      <point x="289" y="874" type="curve"/>
      <point x="299" y="863"/>
      <point x="365" y="849"/>
      <point x="378" y="844" type="curve"/>
      <point x="378" y="824" type="line"/>
      <point x="360" y="820"/>
      <point x="302" y="808"/>
      <point x="288" y="799" type="curve" smooth="yes"/>
      <point x="187" y="759"/>
      <point x="142" y="581"/>
      <point x="142" y="415" type="curve" smooth="yes"/>
      <point x="142" y="65"/>
      <point x="345" y="-30"/>
    </contour>
    <contour>
      <point x="726" y="176" type="curve" smooth="yes"/>
      <point x="589" y="176"/>
      <point x="488" y="219"/>
      <point x="488" y="312" type="curve" smooth="yes"/>
      <point x="488" y="438"/>
      <point x="490" y="732"/>
      <point x="583" y="732" type="curve" smooth="yes"/>
      <point x="999" y="732" type="line"/>
      <point x="999" y="298" type="line" smooth="yes"/>
      <point x="999" y="217"/>
      <point x="870" y="176"/>
    </contour>
  </outline>
</glyph>
<glyph name="quotesingle" format="1">
  <advance width="622"/>
  <unicode hex="0027"/>
  <outline>
    <contour>
      <point x="339" y="911" type="curve" smooth="yes"/>
      <point x="356" y="995"/>
      <point x="436" y="1317"/>
      <point x="436" y="1411" type="curve" smooth="yes"/>
      <point x="436" y="1508"/>
      <point x="381" y="1557"/>
      <point x="310" y="1557" type="curve" smooth="yes"/>
      <point x="229" y="1557"/>
      <point x="186" y="1509"/>
      <point x="186" y="1403" type="curve" smooth="yes"/>
      <point x="186" y="1313"/>
      <point x="266" y="1000"/>
      <point x="283" y="914" type="curve" smooth="yes"/>
      <point x="287" y="897"/>
      <point x="303" y="887"/>
      <point x="311" y="887" type="curve" smooth="yes"/>
      <point x="319" y="887"/>
      <point x="336" y="894"/>
    </contour>
  </outline>
</glyph>
<glyph name="parenright" format="1">
  <advance width="962"/>
  <unicode hex="0029"/>
  <outline>
    <contour>
      <point x="174" y="-203" type="line"/>
      <point x="617" y="-184"/>
      <point x="775" y="266"/>
      <point x="775" y="772" type="curve" smooth="yes"/>
      <point x="775" y="1278"/>
      <point x="617" y="1735"/>
      <point x="174" y="1754" type="curve"/>
      <point x="164" y="1554" type="line"/>
      <point x="417" y="1531"/>
      <point x="506" y="1192"/>
      <point x="506" y="772" type="curve" smooth="yes"/>
      <point x="506" y="351"/>
      <point x="417" y="20"/>
      <point x="164" y="-3" type="curve"/>
    </contour>
  </outline>
</glyph>
<glyph name="one" format="1">
  <advance width="908"/>
  <unicode hex="0031"/>
  <outline>
    <contour>
      <point x="337" y="0" type="line"/>
      <point x="678" y="0" type="line"/>
      <point x="678" y="1536" type="line"/>
      <point x="403" y="1536" type="line"/>
      <point x="346" y="1459"/>
      <point x="253" y="1420"/>
      <point x="138" y="1417" type="curve"/>
      <point x="138" y="1269" type="line"/>
      <point x="337" y="1269" type="line"/>
    </contour>
  </outline>
</glyph>
<glyph name="four" format="1">
  <advance width="1380"/>
  <unicode hex="0034"/>
  <outline>
    <contour>
      <point x="555" y="1536" type="line"/>
      <point x="133" y="591" type="line"/>
      <point x="133" y="323" type="line"/>
      <point x="856" y="323" type="line"/>
      <point x="856" y="0" type="line"/>
      <point x="1162" y="0" type="line"/>
      <point x="1162" y="982" type="line"/>
      <point x="856" y="982" type="line"/>
      <point x="856" y="557" type="line"/>
      <point x="468" y="557" type="line"/>
      <point x="529" y="688" type="line"/>
      <point x="890" y="1536" type="line"/>
    </contour>
  </outline>
</glyph>
<glyph name="six" format="1">
  <advance width="1380"/>
  <unicode hex="0036"/>
  <outline>
    <contour>
      <point x="737" y="-24" type="curve" smooth="yes"/>
      <point x="1149" y="-23"/>
      <point x="1280" y="77"/>
      <point x="1280" y="505" type="curve" smooth="yes"/>
      <point x="1280" y="909"/>
      <point x="1137" y="1002"/>
      <point x="739" y="1002" type="curve" smooth="yes"/>
      <point x="619" y="1002"/>
      <point x="525" y="982"/>
      <point x="491" y="943" type="curve"/>
      <point x="491" y="1246" type="line" smooth="yes"/>
      <point x="492" y="1339"/>
      <point x="561" y="1368"/>
      <point x="711" y="1368" type="curve" smooth="yes"/>
      <point x="785" y="1368"/>
      <point x="889" y="1366"/>
      <point x="908" y="1350" type="curve" smooth="yes"/>
      <point x="927" y="1334"/>
      <point x="927" y="1200"/>
      <point x="927" y="1145" type="curve"/>
      <point x="1230" y="1159" type="line"/>
      <point x="1230" y="1258" type="line" smooth="yes"/>
      <point x="1232" y="1537"/>
      <point x="979" y="1560"/>
      <point x="711" y="1560" type="curve" smooth="yes"/>
      <point x="239" y="1560"/>
      <point x="167" y="1402"/>
      <point x="167" y="915" type="curve" smooth="yes"/>
      <point x="167" y="567" type="line" smooth="yes"/>
      <point x="167" y="93"/>
      <point x="267" y="-24"/>
    </contour>
    <contour>
      <point x="718" y="173" type="curve" smooth="yes"/>
      <point x="533" y="173"/>
      <point x="491" y="218"/>
      <point x="490" y="313" type="curve" smooth="yes"/>
      <point x="489" y="646" type="line" smooth="yes"/>
      <point x="487" y="748"/>
      <point x="517" y="797"/>
      <point x="718" y="797" type="curve" smooth="yes"/>
      <point x="910" y="797"/>
      <point x="956" y="772"/>
      <point x="956" y="650" type="curve" smooth="yes"/>
      <point x="956" y="292" type="line" smooth="yes"/>
      <point x="956" y="205"/>
      <point x="904" y="173"/>
    </contour>
  </outline>
</glyph>
<glyph name="greater" format="1">
  <advance width="1125"/>
  <unicode hex="003E"/>
  <outline>
    <contour>
      <point x="196" y="131" type="line"/>
      <point x="960" y="558" type="line"/>
      <point x="960" y="918" type="line"/>
      <point x="196" y="1354" type="line"/>
      <point x="196" y="1000" type="line"/>
      <point x="746" y="744" type="line"/>
      <point x="196" y="480" type="line"/>
    </contour>
  </outline>
</glyph>
<glyph name="question" format="1">
  <advance width="947"/>
  <unicode hex="003F"/>
  <outline>
    <contour>
      <point x="378" y="471" type="curve" smooth="yes"/>
      <point x="412" y="471"/>
      <point x="432" y="488"/>
      <point x="434" y="520" type="curve" smooth="yes"/>
      <point x="443" y="622"/>
      <point x="501" y="708"/>
      <point x="580" y="801" type="curve"/>
      <point x="701" y="956"/>
      <point x="826" y="1070"/>
      <point x="826" y="1241" type="curve" smooth="yes"/>
      <point x="826" y="1443"/>
      <point x="701" y="1570"/>
      <point x="426" y="1570" type="curve" smooth="yes"/>
      <point x="341" y="1570"/>
      <point x="244" y="1549"/>
      <point x="128" y="1503" type="curve"/>
      <point x="155" y="1259" type="line"/>
      <point x="257" y="1290"/>
      <point x="322" y="1303"/>
      <point x="370" y="1303" type="curve" smooth="yes"/>
      <point x="483" y="1303"/>
      <point x="536" y="1238"/>
      <point x="536" y="1149" type="curve" smooth="yes"/>
      <point x="536" y="1070"/>
      <point x="503" y="997"/>
      <point x="452" y="908" type="curve"/>
      <point x="370" y="786"/>
      <point x="324" y="687"/>
      <point x="324" y="527" type="curve" smooth="yes"/>
      <point x="324" y="496"/>
      <point x="340" y="471"/>
    </contour>
    <contour>
      <point x="375" y="-35" type="curve" smooth="yes"/>
      <point x="457" y="-35"/>
      <point x="538" y="23"/>
      <point x="538" y="141" type="curve" smooth="yes"/>
      <point x="538" y="256"/>
      <point x="454" y="315"/>
      <point x="371" y="315" type="curve" smooth="yes"/>
      <point x="290" y="315"/>
      <point x="210" y="258"/>
      <point x="210" y="141" type="curve" smooth="yes"/>
      <point x="210" y="25"/>
      <point x="293" y="-35"/>
    </contour>
  </outline>
</glyph>
<glyph name="E" format="1">
  <advance width="1192"/>
  <unicode hex="0045"/>
  <outline>
    <contour>
      <point x="606" y="0" type="move" name="bot"/>
    </contour>
    <contour>
      <point x="671" y="0" type="move" name="ogonek"/>
    </contour>
    <contour>
      <point x="606" y="1529" type="move" name="top"/>
    </contour>
    <contour>
      <point x="188" y="1536" type="line"/>
      <point x="188" y="0" type="line"/>
      <point x="1070" y="0" type="line"/>
      <point x="1082" y="196" type="line"/>
      <point x="540" y="196" type="line"/>
      <point x="540" y="702" type="line"/>
      <point x="1008" y="702" type="line"/>
      <point x="1008" y="903" type="line"/>
      <point x="540" y="903" type="line"/>
      <point x="540" y="1340" type="line"/>
      <point x="1081" y="1340" type="line"/>
      <point x="1064" y="1536" type="line"/>
    </contour>
  </outline>
</glyph>
<glyph name="F" format="1">
  <advance width="1129"/>
  <unicode hex="0046"/>
  <outline>
    <contour>
      <point x="578" y="0" type="move" name="bot"/>
    </contour>
    <contour>
      <point x="610" y="1529" type="move" name="top"/>
    </contour>
    <contour>
      <point x="188" y="1536" type="line"/>
      <point x="188" y="0" type="line"/>
      <point x="540" y="0" type="line"/>
      <point x="540" y="695" type="line"/>
      <point x="987" y="695" type="line"/>
      <point x="987" y="896" type="line"/>
      <point x="540" y="896" type="line"/>
      <point x="540" y="1340" type="line"/>
      <point x="1057" y="1340" type="line"/>
      <point x="1041" y="1536" type="line"/>
    </contour>
  </outline>
</glyph>
<glyph name="I" format="1">
  <advance width="692"/>
  <unicode hex="0049"/>
  <outline>
    <contour>
      <point x="346" y="0" type="move" name="bot"/>
    </contour>
    <contour>
      <point x="354" y="0" type="move" name="ogonek"/>
    </contour>
    <contour>
      <point x="346" y="1529" type="move" name="top"/>
    </contour>
    <contour>
      <point x="170" y="1536" type="line"/>
      <point x="170" y="0" type="line"/>
      <point x="522" y="0" type="line"/>
      <point x="522" y="1536" type="line"/>
    </contour>
  </outline>
</glyph>
<glyph name="J" format="1">
  <advance width="884"/>
  <unicode hex="004A"/>
  <outline>
    <contour>
      <point x="441" y="0" type="move" name="bot"/>
    </contour>
    <contour>
      <point x="538" y="1529" type="move" name="top"/>
    </contour>
    <contour>
      <point x="322" y="-79" type="curve" smooth="yes"/>
      <point x="552" y="-79"/>
      <point x="716" y="0"/>
      <point x="716" y="299" type="curve" smooth="yes"/>
      <point x="716" y="1536" type="line"/>
      <point x="365" y="1536" type="line"/>
      <point x="365" y="303" type="line" smooth="yes"/>
      <point x="365" y="228"/>
      <point x="362" y="148"/>
      <point x="283" y="140" type="curve" smooth="yes"/>
      <point x="258" y="138"/>
      <point x="149" y="137"/>
      <point x="106" y="137" type="curve"/>
      <point x="122" y="-63" type="line"/>
      <point x="154" y="-70"/>
      <point x="247" y="-79"/>
    </contour>
  </outline>
</glyph>
<glyph name="K" format="1">
  <advance width="1475"/>
  <unicode hex="004B"/>
  <outline>
    <contour>
      <point x="746" y="0" type="move" name="bot"/>
    </contour>
    <contour>
      <point x="746" y="1529" type="move" name="top"/>
    </contour>
    <contour>
      <point x="1013" y="1536" type="line"/>
      <point x="634" y="942" type="line"/>
      <point x="538" y="787" type="line"/>
      <point x="539" y="969" type="line"/>
      <point x="539" y="1536" type="line"/>
      <point x="188" y="1536" type="line"/>
      <point x="188" y="0" type="line"/>
      <point x="539" y="0" type="line"/>
      <point x="539" y="579" type="line"/>
      <point x="610" y="689" type="line"/>
      <point x="1058" y="0" type="line"/>
      <point x="1453" y="0" type="line"/>
      <point x="912" y="806" type="line"/>
      <point x="1393" y="1536" type="line"/>
    </contour>
  </outline>
</glyph>
<glyph name="M" format="1">
  <advance width="1864"/>
  <unicode hex="004D"/>
  <outline>
    <contour>
      <point x="930" y="0" type="move" name="bot"/>
    </contour>
    <contour>
      <point x="930" y="1529" type="move" name="top"/>
    </contour>
    <contour>
      <point x="1247" y="1541" type="line"/>
      <point x="935" y="479" type="line"/>
      <point x="928" y="479" type="line"/>
      <point x="611" y="1541" type="line"/>
      <point x="225" y="1541" type="line"/>
      <point x="132" y="0" type="line"/>
      <point x="420" y="0" type="line"/>
      <point x="484" y="1088" type="line"/>
      <point x="490" y="1088" type="line"/>
      <point x="816" y="0" type="line"/>
      <point x="1047" y="0" type="line"/>
      <point x="1364" y="1088" type="line"/>
      <point x="1372" y="1088" type="line"/>
      <point x="1437" y="0" type="line"/>
      <point x="1727" y="0" type="line"/>
      <point x="1634" y="1541" type="line"/>
    </contour>
  </outline>
</glyph>
<glyph name="V" format="1">
  <advance width="1432"/>
  <unicode hex="0056"/>
  <outline>
    <contour>
      <point x="1015" y="1536" type="line"/>
      <point x="717" y="327" type="line"/>
      <point x="713" y="327" type="line"/>
      <point x="407" y="1536" type="line"/>
      <point x="53" y="1536" type="line"/>
      <point x="489" y="0" type="line"/>
      <point x="933" y="0" type="line"/>
      <point x="1373" y="1536" type="line"/>
    </contour>
  </outline>
</glyph>
<glyph name="X" format="1">
  <advance width="1401"/>
  <unicode hex="0058"/>
  <outline>
    <contour>
      <point x="1017" y="1536" type="line"/>
      <point x="653" y="921" type="line"/>
      <point x="543" y="860" type="line"/>
      <point x="30" y="0" type="line"/>
      <point x="372" y="0" type="line"/>
      <point x="758" y="635" type="line"/>
      <point x="875" y="704" type="line"/>
      <point x="1357" y="1536" type="line"/>
    </contour>
    <contour>
      <point x="79" y="1536" type="line"/>
      <point x="1018" y="0" type="line"/>
      <point x="1357" y="0" type="line"/>
      <point x="414" y="1536" type="line"/>
    </contour>
  </outline>
</glyph>
<glyph name="Z" format="1">
  <advance width="1177"/>
  <unicode hex="005A"/>
  <outline>
    <contour>
      <point x="592" y="0" type="move" name="bot"/>
    </contour>
    <contour>
      <point x="592" y="1529" type="move" name="top"/>
    </contour>
    <contour>
      <point x="151" y="1536" type="line"/>
      <point x="168" y="1323" type="line"/>
      <point x="714" y="1323" type="line"/>
      <point x="137" y="216" type="line"/>
      <point x="143" y="0" type="line"/>
      <point x="1064" y="0" type="line"/>
      <point x="1068" y="214" type="line"/>
      <point x="497" y="214" type="line"/>
      <point x="1056" y="1325" type="line"/>
      <point x="1052" y="1536" type="line"/>
    </contour>
  </outline>
</glyph>
<glyph name="bracketleft" format="1">
  <advance width="942"/>
  <unicode hex="005B"/>
  <outline>
    <contour>
      <point x="215" y="1718" type="line"/>
      <point x="215" y="-293" type="line"/>
      <point x="857" y="-293" type="line"/>
      <point x="857" y="-101" type="line"/>
      <point x="570" y="-101" type="line"/>
      <point x="570" y="1527" type="line"/>
      <point x="857" y="1527" type="line"/>
      <point x="857" y="1718" type="line"/>
    </contour>
  </outline>
</glyph>
<glyph name="bracketright" format="1">
  <advance width="1054"/>
  <unicode hex="005D"/>
  <outline>
    <contour>
      <point x="209" y="1718" type="line"/>
      <point x="209" y="1527" type="line"/>
      <point x="495" y="1527" type="line"/>
      <point x="495" y="-101" type="line"/>
      <point x="209" y="-101" type="line"/>
      <point x="209" y="-293" type="line"/>
      <point x="850" y="-293" type="line"/>
      <point x="850" y="1718" type="line"/>
    </contour>
  </outline>
</glyph>
<glyph name="underscore" format="1">
  <advance width="868"/>
  <unicode hex="005F"/>
  <outline>
    <contour>
      <point x="6" y="-93" type="line"/>
      <point x="6" y="-279" type="line"/>
      <point x="862" y="-279" type="line"/>
      <point x="862" y="-93" type="line"/>
    </contour>
  </outline>
</glyph>
<glyph name="b" format="1">
  <advance width="1359"/>
  <unicode hex="0062"/>
  <outline>
    <contour>
      <point x="678" y="1172" type="move" name="top"/>
    </contour>
    <contour>
      <point x="166" y="1575" type="line"/>
      <point x="166" y="0" type="line"/>
      <point x="471" y="0" type="line"/>
      <point x="496" y="127" type="line"/>
      <point x="542" y="32"/>
      <point x="662" y="-21"/>
      <point x="826" y="-21" type="curve" smooth="yes"/>
      <point x="1144" y="-21"/>
      <point x="1222" y="121"/>
      <point x="1225" y="449" type="curve" smooth="yes"/>
      <point x="1226" y="756" type="line" smooth="yes"/>
      <point x="1227" y="1046"/>
      <point x="1150" y="1207"/>
      <point x="817" y="1207" type="curve" smooth="yes"/>
      <point x="655" y="1207"/>
      <point x="553" y="1166"/>
      <point x="501" y="1075" type="curve"/>
      <point x="501" y="1575" type="line"/>
    </contour>
    <contour>
      <point x="695" y="153" type="curve" smooth="yes"/>
      <point x="576" y="153"/>
      <point x="501" y="176"/>
      <point x="501" y="238" type="curve" smooth="yes"/>
      <point x="501" y="913" type="line" smooth="yes"/>
      <point x="501" y="1022"/>
      <point x="557" y="1034"/>
      <point x="694" y="1034" type="curve" smooth="yes"/>
      <point x="850" y="1034"/>
      <point x="885" y="1012"/>
      <point x="885" y="906" type="curve" smooth="yes"/>
      <point x="885" y="280" type="line" smooth="yes"/>
      <point x="885" y="163"/>
      <point x="828" y="153"/>
    </contour>
  </outline>
</glyph>
<glyph name="d" format="1">
  <advance width="1358"/>
  <unicode hex="0064"/>
  <outline>
    <contour>
      <point x="1003" y="1375" type="move" name="mid"/>
    </contour>
    <contour>
      <point x="1063" y="1172" type="move" name="caron.alt"/>
    </contour>
    <contour>
      <point x="589" y="1225" type="move" name="top"/>
    </contour>
    <contour>
      <point x="857" y="1575" type="line"/>
      <point x="857" y="1079" type="line"/>
      <point x="806" y="1169"/>
      <point x="711" y="1207"/>
      <point x="546" y="1207" type="curve" smooth="yes"/>
      <point x="213" y="1207"/>
      <point x="133" y="1065"/>
      <point x="133" y="731" type="curve" smooth="yes"/>
      <point x="133" y="447" type="line" smooth="yes"/>
      <point x="133" y="141"/>
      <point x="205" y="-21"/>
      <point x="536" y="-21" type="curve" smooth="yes"/>
      <point x="699" y="-21"/>
      <point x="813" y="33"/>
      <point x="861" y="127" type="curve"/>
      <point x="886" y="0" type="line"/>
      <point x="1192" y="0" type="line"/>
      <point x="1192" y="1575" type="line"/>
    </contour>
    <contour>
      <point x="664" y="153" type="curve" smooth="yes"/>
      <point x="507" y="153"/>
      <point x="476" y="196"/>
      <point x="476" y="309" type="curve" smooth="yes"/>
      <point x="475" y="882" type="line" smooth="yes"/>
      <point x="475" y="1008"/>
      <point x="528" y="1034"/>
      <point x="664" y="1034" type="curve" smooth="yes"/>
      <point x="789" y="1034"/>
      <point x="856" y="1014"/>
      <point x="856" y="949" type="curve" smooth="yes"/>
      <point x="856" y="230" type="line" smooth="yes"/>
      <point x="856" y="172"/>
      <point x="779" y="153"/>
    </contour>
  </outline>
</glyph>
<glyph name="e" format="1">
  <advance width="1305"/>
  <unicode hex="0065"/>
  <outline>
    <contour>
      <point x="652" y="0" type="move" name="bot"/>
    </contour>
    <contour>
      <point x="748" y="0" type="move" name="ogonek"/>
    </contour>
    <contour>
      <point x="638" y="1172" type="move" name="top"/>
    </contour>
    <contour>
      <point x="668" y="-18" type="curve" smooth="yes"/>
      <point x="1001" y="-18"/>
      <point x="1159" y="46"/>
      <point x="1162" y="299" type="curve" smooth="yes"/>
      <point x="1162" y="313"/>
      <point x="1162" y="378"/>
      <point x="1161" y="395" type="curve"/>
      <point x="852" y="400" type="line"/>
      <point x="846" y="206" type="line" smooth="yes"/>
      <point x="843" y="173"/>
      <point x="780" y="156"/>
      <point x="672" y="156" type="curve" smooth="yes"/>
      <point x="546" y="156"/>
      <point x="477" y="167"/>
      <point x="474" y="217" type="curve" smooth="yes"/>
      <point x="470" y="276"/>
      <point x="469" y="513"/>
      <point x="469" y="574" type="curve"/>
      <point x="1176" y="574" type="line"/>
      <point x="1179" y="772" type="line"/>
      <point x="1176" y="1158"/>
      <point x="1009" y="1213"/>
      <point x="662" y="1213" type="curve" smooth="yes"/>
      <point x="298" y="1213"/>
      <point x="133" y="1152"/>
      <point x="133" y="752" type="curve" smooth="yes"/>
      <point x="133" y="413" type="line" smooth="yes"/>
      <point x="133" y="37"/>
      <point x="317" y="-18"/>
    </contour>
    <contour>
      <point x="469" y="709" type="line"/>
      <point x="470" y="751"/>
      <point x="469" y="950"/>
      <point x="480" y="988" type="curve" smooth="yes"/>
      <point x="493" y="1031"/>
      <point x="537" y="1041"/>
      <point x="662" y="1041" type="curve" smooth="yes"/>
      <point x="769" y="1041"/>
      <point x="834" y="1030"/>
      <point x="838" y="984" type="curve" smooth="yes"/>
      <point x="841" y="941"/>
      <point x="843" y="753"/>
      <point x="844" y="709" type="curve"/>
    </contour>
  </outline>
</glyph>
<glyph name="i" format="1">
  <advance width="712"/>
  <unicode hex="0069"/>
  <outline>
    <component base="dotaccent" xOffset="-28"/>
    <component base="dotlessi" xOffset="15"/>
    <contour>
      <point x="150" y="0" type="move" name="ogonek"/>
    </contour>
  </outline>
</glyph>
<glyph name="k" format="1">
  <advance width="1282"/>
  <unicode hex="006B"/>
  <outline>
    <contour>
      <point x="647" y="0" type="move" name="bottom"/>
    </contour>
    <contour>
      <point x="651" y="0" type="move" name="bot"/>
    </contour>
    <contour>
      <point x="829" y="1372" type="move" name="top"/>
    </contour>
    <contour>
      <point x="166" y="1575" type="line"/>
      <point x="166" y="0" type="line"/>
      <point x="502" y="0" type="line"/>
      <point x="502" y="473" type="line"/>
      <point x="575" y="565" type="line"/>
      <point x="901" y="0" type="line"/>
      <point x="1271" y="0" type="line"/>
      <point x="850" y="672" type="line"/>
      <point x="1238" y="1186" type="line"/>
      <point x="880" y="1186" type="line"/>
      <point x="637" y="868" type="line"/>
      <point x="601" y="834"/>
      <point x="536" y="735"/>
      <point x="501" y="701" type="curve"/>
      <point x="501" y="729"/>
      <point x="502" y="841"/>
      <point x="502" y="869" type="curve" smooth="yes"/>
      <point x="502" y="1575" type="line"/>
    </contour>
  </outline>
</glyph>
<glyph name="r" format="1">
  <advance width="908"/>
  <unicode hex="0072"/>
  <outline>
    <contour>
      <point x="413" y="0" type="move" name="bot"/>
    </contour>
    <contour>
      <point x="442" y="1172" type="move" name="top"/>
    </contour>
    <contour>
      <point x="490" y="1053" type="curve"/>
      <point x="462" y="1186" type="line"/>
      <point x="170" y="1186" type="line"/>
      <point x="169" y="0" type="line"/>
      <point x="505" y="0" type="line"/>
      <point x="505" y="592" type="line" smooth="yes"/>
      <point x="505" y="631"/>
      <point x="500" y="742"/>
      <point x="500" y="787" type="curve" smooth="yes"/>
      <point x="500" y="905"/>
      <point x="693" y="956"/>
      <point x="789" y="945" type="curve"/>
      <point x="794" y="1205" type="line"/>
      <point x="674" y="1210"/>
      <point x="537" y="1163"/>
    </contour>
  </outline>
</glyph>
<glyph name="s" format="1">
  <advance width="1192"/>
  <unicode hex="0073"/>
  <outline>
    <contour>
      <point x="592" y="0" type="move" name="bot"/>
    </contour>
    <contour>
      <point x="582" y="1172" type="move" name="top"/>
    </contour>
    <contour>
      <point x="624" y="-21" type="curve" smooth="yes"/>
      <point x="965" y="-21"/>
      <point x="1102" y="27"/>
      <point x="1102" y="352" type="curve" smooth="yes"/>
      <point x="1102" y="617"/>
      <point x="1032" y="674"/>
      <point x="747" y="712" type="curve"/>
      <point x="612" y="735" type="line"/>
      <point x="443" y="758"/>
      <point x="436" y="763"/>
      <point x="436" y="864" type="curve" smooth="yes"/>
      <point x="436" y="898"/>
      <point x="438" y="984"/>
      <point x="456" y="998" type="curve" smooth="yes"/>
      <point x="474" y="1011"/>
      <point x="536" y="1017"/>
      <point x="602" y="1017" type="curve" smooth="yes"/>
      <point x="670" y="1017"/>
      <point x="734" y="1015"/>
      <point x="755" y="1004" type="curve" smooth="yes"/>
      <point x="776" y="992"/>
      <point x="781" y="910"/>
      <point x="785" y="870" type="curve"/>
      <point x="1062" y="900" type="line"/>
      <point x="1062" y="1187"/>
      <point x="902" y="1207"/>
      <point x="612" y="1207" type="curve" smooth="yes"/>
      <point x="272" y="1207"/>
      <point x="120" y="1153"/>
      <point x="120" y="859" type="curve" smooth="yes"/>
      <point x="120" y="586"/>
      <point x="217" y="543"/>
      <point x="478" y="510" type="curve"/>
      <point x="617" y="488" type="line"/>
      <point x="758" y="470"/>
      <point x="785" y="466"/>
      <point x="785" y="348" type="curve" smooth="yes"/>
      <point x="785" y="313"/>
      <point x="784" y="216"/>
      <point x="766" y="197" type="curve" smooth="yes"/>
      <point x="749" y="178"/>
      <point x="687" y="168"/>
      <point x="620" y="168" type="curve" smooth="yes"/>
      <point x="538" y="168"/>
      <point x="469" y="169"/>
      <point x="447" y="184" type="curve" smooth="yes"/>
      <point x="425" y="199"/>
      <point x="423" y="301"/>
      <point x="418" y="356" type="curve"/>
      <point x="128" y="324" type="line"/>
      <point x="128" y="-3"/>
      <point x="305" y="-21"/>
    </contour>
  </outline>
</glyph>
<glyph name="v" format="1">
  <advance width="1217"/>
  <unicode hex="0076"/>
  <outline>
    <contour>
      <point x="824" y="1186" type="line"/>
      <point x="613" y="253" type="line"/>
      <point x="608" y="253" type="line"/>
      <point x="376" y="1186" type="line"/>
      <point x="56" y="1186" type="line"/>
      <point x="390" y="0" type="line"/>
      <point x="819" y="0" type="line"/>
      <point x="1156" y="1186" type="line"/>
    </contour>
  </outline>
</glyph>
<glyph name="w" format="1">
  <advance width="1752"/>
  <unicode hex="0077"/>
  <outline>
    <contour>
      <point x="882" y="0" type="move" name="bot"/>
    </contour>
    <contour>
      <point x="876" y="1172" type="move" name="top"/>
    </contour>
    <contour>
      <point x="319" y="0" type="line"/>
      <point x="701" y="0" type="line"/>
      <point x="876" y="832" type="line"/>
      <point x="880" y="832" type="line"/>
      <point x="1061" y="0" type="line"/>
      <point x="1432" y="0" type="line"/>
      <point x="1684" y="1186" type="line"/>
      <point x="1386" y="1186" type="line"/>
      <point x="1225" y="290" type="line"/>
      <point x="1218" y="290" type="line"/>
      <point x="1035" y="1186" type="line"/>
      <point x="721" y="1186" type="line"/>
      <point x="539" y="290" type="line"/>
      <point x="534" y="290" type="line"/>
      <point x="362" y="1186" type="line"/>
      <point x="64" y="1186" type="line"/>
    </contour>
  </outline>
</glyph>
<glyph name="x" format="1">
  <advance width="1201"/>
  <unicode hex="0078"/>
  <outline>
    <contour>
      <point x="66" y="0" type="line"/>
      <point x="359" y="0" type="line"/>
      <point x="617" y="417" type="line"/>
      <point x="745" y="550" type="line"/>
      <point x="1125" y="1186" type="line"/>
      <point x="835" y="1186" type="line"/>
      <point x="593" y="786" type="line"/>
      <point x="459" y="661" type="line"/>
    </contour>
    <contour>
      <point x="794" y="0" type="line"/>
      <point x="1134" y="0" type="line"/>
      <point x="416" y="1186" type="line"/>
      <point x="75" y="1186" type="line"/>
    </contour>
  </outline>
</glyph>
<glyph name="z" format="1">
  <advance width="1052"/>
  <unicode hex="007A"/>
  <outline>
    <contour>
      <point x="523" y="0" type="move" name="bot"/>
    </contour>
    <contour>
      <point x="492" y="1172" type="move" name="top"/>
    </contour>
    <contour>
      <point x="163" y="1186" type="line"/>
      <point x="173" y="1000" type="line"/>
      <point x="590" y="1000" type="line"/>
      <point x="139" y="181" type="line"/>
      <point x="159" y="0" type="line"/>
      <point x="940" y="0" type="line"/>
      <point x="952" y="184" type="line"/>
      <point x="496" y="184" type="line"/>
      <point x="942" y="1012" type="line"/>
      <point x="928" y="1186" type="line"/>
    </contour>
  </outline>
</glyph>
<glyph name="braceleft" format="1">
  <advance width="1014"/>
  <unicode hex="007B"/>
  <outline>
    <contour>
      <point x="932" y="-263" type="curve"/>
      <point x="932" y="-71" type="line"/>
      <point x="652" y="-71"/>
      <point x="641" y="-16"/>
      <point x="642" y="294" type="curve" smooth="yes"/>
      <point x="642" y="580"/>
      <point x="601" y="714"/>
      <point x="438" y="750" type="curve"/>
      <point x="601" y="786"/>
      <point x="642" y="919"/>
      <point x="642" y="1205" type="curve" smooth="yes"/>
      <point x="641" y="1515"/>
      <point x="652" y="1571"/>
      <point x="932" y="1571" type="curve"/>
      <point x="932" y="1763" type="line"/>
      <point x="497" y="1763"/>
      <point x="349" y="1663"/>
      <point x="346" y="1178" type="curve" smooth="yes"/>
      <point x="344" y="917"/>
      <point x="302" y="860"/>
      <point x="114" y="860" type="curve"/>
      <point x="114" y="640" type="line"/>
      <point x="302" y="640"/>
      <point x="344" y="583"/>
      <point x="346" y="321" type="curve" smooth="yes"/>
      <point x="349" y="-163"/>
      <point x="497" y="-263"/>
    </contour>
  </outline>
</glyph>
<glyph name="bar" format="1">
  <advance width="752"/>
  <unicode hex="007C"/>
  <outline>
    <contour>
      <point x="213" y="1707" type="line"/>
      <point x="213" y="-143" type="line"/>
      <point x="534" y="-143" type="line"/>
      <point x="534" y="1707" type="line"/>
    </contour>
  </outline>
</glyph>
<glyph name="braceright" format="1">
  <advance width="1014"/>
  <unicode hex="007D"/>
  <outline>
    <contour>
      <point x="114" y="-263" type="line"/>
      <point x="548" y="-263"/>
      <point x="697" y="-163"/>
      <point x="699" y="321" type="curve" smooth="yes"/>
      <point x="701" y="583"/>
      <point x="743" y="640"/>
      <point x="932" y="640" type="curve"/>
      <point x="932" y="860" type="line"/>
      <point x="743" y="860"/>
      <point x="701" y="917"/>
      <point x="699" y="1178" type="curve" smooth="yes"/>
      <point x="697" y="1663"/>
      <point x="548" y="1763"/>
      <point x="114" y="1763" type="curve"/>
      <point x="114" y="1571" type="line"/>
      <point x="393" y="1571"/>
      <point x="404" y="1515"/>
      <point x="404" y="1205" type="curve" smooth="yes"/>
      <point x="404" y="919"/>
      <point x="444" y="786"/>
      <point x="607" y="750" type="curve"/>
      <point x="444" y="714"/>
      <point x="404" y="580"/>
      <point x="404" y="294" type="curve" smooth="yes"/>
      <point x="404" y="-16"/>
      <point x="393" y="-71"/>
      <point x="114" y="-71" type="curve"/>
    </contour>
  </outline>
</glyph>
<glyph name="cent" format="1">
  <advance width="1486"/>
  <unicode hex="00A2"/>
  <outline>
    <component base="C"/>
    <contour>
      <point x="710" y="1804" type="line"/>
      <point x="710" y="1481" type="line"/>
      <point x="842" y="1481" type="line"/>
      <point x="842" y="1804" type="line"/>
    </contour>
    <contour>
      <point x="712" y="42" type="line"/>
      <point x="712" y="-264" type="line"/>
      <point x="844" y="-264" type="line"/>
      <point x="844" y="42" type="line"/>
    </contour>
  </outline>
</glyph>
<glyph name="yen" format="1">
  <advance width="1439"/>
  <unicode hex="00A5"/>
  <outline>
    <contour>
      <point x="540" y="0" type="line"/>
      <point x="891" y="0" type="line"/>
      <point x="891" y="278" type="line"/>
      <point x="1192" y="278" type="line"/>
      <point x="1192" y="389" type="line"/>
      <point x="891" y="389" type="line"/>
      <point x="910" y="547" type="line"/>
      <point x="1222" y="547" type="line"/>
      <point x="1222" y="674" type="line"/>
      <point x="964" y="674" type="line"/>
      <point x="1338" y="1536" type="line"/>
      <point x="998" y="1536" type="line"/>
      <point x="724" y="766" type="line"/>
      <point x="446" y="1536" type="line"/>
      <point x="99" y="1536" type="line"/>
      <point x="469" y="674" type="line"/>
      <point x="214" y="674" type="line"/>
      <point x="214" y="547" type="line"/>
      <point x="522" y="547" type="line"/>
      <point x="540" y="389" type="line"/>
      <point x="243" y="389" type="line"/>
      <point x="243" y="278" type="line"/>
      <point x="540" y="278" type="line"/>
    </contour>
  </outline>
</glyph>
<glyph name="registered" format="1">
  <advance width="1931"/>
  <unicode hex="00AE"/>
  <outline>
    <contour>
      <point x="601" y="272" type="line"/>
      <point x="825" y="272" type="line"/>
      <point x="825" y="744" type="line"/>
      <point x="987" y="744" type="line" smooth="yes"/>
      <point x="1085" y="744"/>
      <point x="1123" y="721"/>
      <point x="1122" y="623" type="curve" smooth="yes"/>
      <point x="1122" y="273" type="line"/>
      <point x="1343" y="273" type="line"/>
      <point x="1343" y="624" type="line" smooth="yes"/>
      <point x="1343" y="732"/>
      <point x="1296" y="795"/>
      <point x="1194" y="803" type="curve"/>
      <point x="1193" y="821" type="line"/>
      <point x="1294" y="835"/>
      <point x="1349" y="906"/>
      <point x="1349" y="1043" type="curve" smooth="yes"/>
      <point x="1349" y="1092" type="line" smooth="yes"/>
      <point x="1349" y="1326"/>
      <point x="1220" y="1352"/>
      <point x="994" y="1352" type="curve" smooth="yes"/>
      <point x="601" y="1352" type="line"/>
    </contour>
    <contour>
      <point x="959" y="34" type="curve" smooth="yes"/>
      <point x="577" y="34"/>
      <point x="295" y="151"/>
      <point x="295" y="575" type="curve" smooth="yes"/>
      <point x="295" y="994" type="line" smooth="yes"/>
      <point x="295" y="1436"/>
      <point x="577" y="1544"/>
      <point x="965" y="1544" type="curve" smooth="yes"/>
      <point x="1327" y="1544"/>
      <point x="1636" y="1448"/>
      <point x="1636" y="1016" type="curve" smooth="yes"/>
      <point x="1636" y="552" type="line" smooth="yes"/>
      <point x="1636" y="138"/>
      <point x="1343" y="34"/>
    </contour>
    <contour>
      <point x="973" y="-98" type="curve" smooth="yes"/>
      <point x="1411" y="-98"/>
      <point x="1805" y="41"/>
      <point x="1805" y="577" type="curve" smooth="yes"/>
      <point x="1805" y="995" type="line" smooth="yes"/>
      <point x="1805" y="1532"/>
      <point x="1434" y="1681"/>
      <point x="966" y="1681" type="curve" smooth="yes"/>
      <point x="526" y="1681"/>
      <point x="126" y="1547"/>
      <point x="126" y="996" type="curve" smooth="yes"/>
      <point x="126" y="577" type="line" smooth="yes"/>
      <point x="126" y="55"/>
      <point x="499" y="-98"/>
    </contour>
    <contour>
      <point x="825" y="869" type="line"/>
      <point x="825" y="1223" type="line"/>
      <point x="986" y="1223" type="line" smooth="yes"/>
      <point x="1068" y="1223"/>
      <point x="1121" y="1219"/>
      <point x="1121" y="1130" type="curve" smooth="yes"/>
      <point x="1121" y="967" type="line" smooth="yes"/>
      <point x="1121" y="881"/>
      <point x="1084" y="869"/>
      <point x="964" y="869" type="curve" smooth="yes"/>
    </contour>
  </outline>
</glyph>
<glyph name="plusminus" format="1">
  <advance width="1318"/>
  <unicode hex="00B1"/>
  <outline>
    <contour>
      <point x="539" y="368" type="line"/>
      <point x="778" y="368" type="line"/>
      <point x="778" y="750" type="line"/>
      <point x="1157" y="750" type="line"/>
      <point x="1157" y="980" type="line"/>
      <point x="778" y="980" type="line"/>
      <point x="778" y="1366" type="line"/>
      <point x="539" y="1366" type="line"/>
      <point x="539" y="980" type="line"/>
      <point x="160" y="980" type="line"/>
      <point x="160" y="750" type="line"/>
      <point x="539" y="750" type="line"/>
    </contour>
    <contour>
      <point x="211" y="0" type="line"/>
      <point x="1102" y="0" type="line"/>
      <point x="1102" y="216" type="line"/>
      <point x="211" y="216" type="line"/>
    </contour>
  </outline>
</glyph>
<glyph name="paragraph" format="1">
  <advance width="1306"/>
  <unicode hex="00B6"/>
  <outline>
    <contour>
      <point x="591" y="1536" type="line" smooth="yes"/>
      <point x="282" y="1536"/>
      <point x="93" y="1440"/>
      <point x="93" y="1125" type="curve" smooth="yes"/>
      <point x="93" y="857"/>
      <point x="287" y="741"/>
      <point x="607" y="741" type="curve"/>
      <point x="607" y="-128" type="line"/>
      <point x="781" y="-128" type="line"/>
      <point x="781" y="1065" type="line"/>
      <point x="953" y="1065" type="line"/>
      <point x="953" y="-128" type="line"/>
      <point x="1119" y="-128" type="line"/>
      <point x="1119" y="1536" type="line"/>
    </contour>
  </outline>
</glyph>
<glyph name="periodcentered" format="1">
  <advance width="814"/>
  <unicode hex="00B7"/>
  <outline>
    <contour>
      <point x="135" y="838" type="move" name="_mid"/>
    </contour>
    <contour>
      <point x="572" y="711" type="curve" smooth="yes"/>
      <point x="658" y="711"/>
      <point x="722" y="773"/>
      <point x="722" y="873" type="curve" smooth="yes"/>
      <point x="722" y="972"/>
      <point x="654" y="1035"/>
      <point x="572" y="1035" type="curve" smooth="yes"/>
      <point x="485" y="1035"/>
      <point x="421" y="973"/>
      <point x="421" y="873" type="curve" smooth="yes"/>
      <point x="421" y="774"/>
      <point x="489" y="711"/>
    </contour>
  </outline>
</glyph>
<glyph name="cedilla" format="1">
  <advance width="850"/>
  <unicode hex="00B8"/>
  <outline>
    <contour>
      <point x="467" y="0" type="move" name="_bot"/>
    </contour>
    <contour>
      <point x="417" y="14" type="line"/>
      <point x="378" y="-133" type="line" smooth="yes"/>
      <point x="355" y="-223"/>
      <point x="343" y="-272"/>
      <point x="340" y="-283" type="curve"/>
      <point x="433" y="-283"/>
      <point x="479" y="-311"/>
      <point x="479" y="-366" type="curve" smooth="yes"/>
      <point x="479" y="-403"/>
      <point x="456" y="-416"/>
      <point x="422" y="-416" type="curve" smooth="yes"/>
      <point x="362" y="-416"/>
      <point x="274" y="-371"/>
      <point x="259" y="-365" type="curve"/>
      <point x="210" y="-461" type="line"/>
      <point x="274" y="-518"/>
      <point x="366" y="-546"/>
      <point x="452" y="-546" type="curve" smooth="yes"/>
      <point x="580" y="-546"/>
      <point x="699" y="-483"/>
      <point x="699" y="-354" type="curve" smooth="yes"/>
      <point x="699" y="-202"/>
      <point x="611" y="-172"/>
      <point x="481" y="-154" type="curve"/>
      <point x="530" y="14" type="line"/>
    </contour>
  </outline>
</glyph>
<glyph name="guillemotright" format="1">
  <advance width="1695"/>
  <unicode hex="00BB"/>
  <outline>
    <contour>
      <point x="231" y="225" type="curve" smooth="yes"/>
      <point x="249" y="225"/>
      <point x="268" y="231"/>
      <point x="288" y="246" type="curve" smooth="yes"/>
      <point x="799" y="632" type="line" smooth="yes"/>
      <point x="852" y="672"/>
      <point x="877" y="726"/>
      <point x="877" y="778" type="curve" smooth="yes"/>
      <point x="876" y="835"/>
      <point x="850" y="888"/>
      <point x="799" y="926" type="curve" smooth="yes"/>
      <point x="288" y="1312" type="line" smooth="yes"/>
      <point x="266" y="1329"/>
      <point x="247" y="1337"/>
      <point x="231" y="1334" type="curve"/>
      <point x="190" y="1337"/>
      <point x="160" y="1302"/>
      <point x="160" y="1258" type="curve" smooth="yes"/>
      <point x="160" y="1241"/>
      <point x="165" y="1218"/>
      <point x="184" y="1197" type="curve" smooth="yes"/>
      <point x="569" y="779" type="line"/>
      <point x="184" y="362" type="line" smooth="yes"/>
      <point x="167" y="343"/>
      <point x="160" y="321"/>
      <point x="160" y="301" type="curve" smooth="yes"/>
      <point x="160" y="260"/>
      <point x="191" y="225"/>
    </contour>
    <contour>
      <point x="857" y="225" type="curve" smooth="yes"/>
      <point x="874" y="225"/>
      <point x="894" y="231"/>
      <point x="913" y="246" type="curve" smooth="yes"/>
      <point x="1424" y="632" type="line" smooth="yes"/>
      <point x="1477" y="672"/>
      <point x="1502" y="726"/>
      <point x="1502" y="778" type="curve" smooth="yes"/>
      <point x="1502" y="835"/>
      <point x="1475" y="888"/>
      <point x="1424" y="926" type="curve" smooth="yes"/>
      <point x="913" y="1312" type="line" smooth="yes"/>
      <point x="891" y="1329"/>
      <point x="873" y="1337"/>
      <point x="856" y="1334" type="curve"/>
      <point x="815" y="1337"/>
      <point x="784" y="1302"/>
      <point x="784" y="1258" type="curve" smooth="yes"/>
      <point x="784" y="1241"/>
      <point x="790" y="1218"/>
      <point x="809" y="1197" type="curve" smooth="yes"/>
      <point x="1194" y="779" type="line"/>
      <point x="809" y="362" type="line" smooth="yes"/>
      <point x="792" y="343"/>
      <point x="785" y="321"/>
      <point x="785" y="301" type="curve" smooth="yes"/>
      <point x="785" y="260"/>
      <point x="816" y="225"/>
    </contour>
  </outline>
</glyph>
<glyph name="onequarter" format="1">
  <advance width="2439"/>
  <unicode hex="00BC"/>
  <outline>
    <contour>
      <point x="2035" y="0" type="line"/>
      <point x="2287" y="0" type="line"/>
      <point x="2287" y="664" type="line"/>
      <point x="2035" y="664" type="line"/>
      <point x="2035" y="403" type="line"/>
      <point x="1747" y="403" type="line"/>
      <point x="1747" y="426" type="line"/>
      <point x="2024" y="1076" type="line"/>
      <point x="1771" y="1076" type="line"/>
      <point x="1475" y="419" type="line"/>
      <point x="1475" y="211" type="line"/>
      <point x="2035" y="211" type="line"/>
    </contour>
    <contour>
      <point x="251" y="496" type="line"/>
      <point x="514" y="496" type="line"/>
      <point x="514" y="1536" type="line"/>
      <point x="328" y="1536" type="line"/>
      <point x="271" y="1501"/>
      <point x="197" y="1481"/>
      <point x="107" y="1481" type="curve"/>
      <point x="107" y="1348" type="line"/>
      <point x="251" y="1348" type="line"/>
    </contour>
    <contour>
      <point x="690" y="0" type="line"/>
      <point x="903" y="0" type="line"/>
      <point x="1502" y="1556" type="line"/>
      <point x="1193" y="1556" type="line"/>
    </contour>
  </outline>
</glyph>
<glyph name="onehalf" format="1">
  <advance width="2492"/>
  <unicode hex="00BD"/>
  <outline>
    <contour>
      <point x="1560" y="0" type="line"/>
      <point x="2350" y="0" type="line"/>
      <point x="2350" y="167" type="line"/>
      <point x="1807" y="167" type="line"/>
      <point x="1807" y="267"/>
      <point x="1840" y="328"/>
      <point x="2005" y="381" type="curve"/>
      <point x="2174" y="445"/>
      <point x="2377" y="500"/>
      <point x="2377" y="742" type="curve" smooth="yes"/>
      <point x="2377" y="1008"/>
      <point x="2230" y="1075"/>
      <point x="1968" y="1075" type="curve" smooth="yes"/>
      <point x="1725" y="1075"/>
      <point x="1553" y="1014"/>
      <point x="1556" y="744" type="curve" smooth="yes"/>
      <point x="1556" y="702" type="line"/>
      <point x="1813" y="713" type="line"/>
      <point x="1813" y="831" type="line" smooth="yes"/>
      <point x="1813" y="875"/>
      <point x="1842" y="909"/>
      <point x="1969" y="909" type="curve" smooth="yes"/>
      <point x="2088" y="908"/>
      <point x="2123" y="885"/>
      <point x="2123" y="842" type="curve" smooth="yes"/>
      <point x="2123" y="734" type="line" smooth="yes"/>
      <point x="2123" y="658"/>
      <point x="2056" y="633"/>
      <point x="1919" y="593" type="curve"/>
      <point x="1668" y="512"/>
      <point x="1560" y="412"/>
      <point x="1560" y="150" type="curve" smooth="yes"/>
    </contour>
    <contour>
      <point x="251" y="496" type="line"/>
      <point x="514" y="496" type="line"/>
      <point x="514" y="1536" type="line"/>
      <point x="328" y="1536" type="line"/>
      <point x="271" y="1501"/>
      <point x="197" y="1481"/>
      <point x="107" y="1481" type="curve"/>
      <point x="107" y="1348" type="line"/>
      <point x="251" y="1348" type="line"/>
    </contour>
    <contour>
      <point x="664" y="0" type="line"/>
      <point x="878" y="0" type="line"/>
      <point x="1476" y="1556" type="line"/>
      <point x="1168" y="1556" type="line"/>
    </contour>
  </outline>
</glyph>
<glyph name="threequarters" format="1">
  <advance width="2712"/>
  <unicode hex="00BE"/>
  <outline>
    <contour>
      <point x="2308" y="0" type="line"/>
      <point x="2559" y="0" type="line"/>
      <point x="2559" y="664" type="line"/>
      <point x="2308" y="664" type="line"/>
      <point x="2308" y="403" type="line"/>
      <point x="2020" y="403" type="line"/>
      <point x="2020" y="426" type="line"/>
      <point x="2296" y="1076" type="line"/>
      <point x="2044" y="1076" type="line"/>
      <point x="1748" y="419" type="line"/>
      <point x="1748" y="211" type="line"/>
      <point x="2308" y="211" type="line"/>
    </contour>
    <contour>
      <point x="1026" y="0" type="line"/>
      <point x="1239" y="0" type="line"/>
      <point x="1838" y="1556" type="line"/>
      <point x="1529" y="1556" type="line"/>
    </contour>
    <contour>
      <point x="577" y="460" type="curve" smooth="yes"/>
      <point x="863" y="460"/>
      <point x="983" y="538"/>
      <point x="983" y="784" type="curve" smooth="yes"/>
      <point x="983" y="892"/>
      <point x="963" y="984"/>
      <point x="869" y="1014" type="curve"/>
      <point x="958" y="1045"/>
      <point x="981" y="1118"/>
      <point x="981" y="1226" type="curve" smooth="yes"/>
      <point x="981" y="1473"/>
      <point x="885" y="1550"/>
      <point x="576" y="1550" type="curve" smooth="yes"/>
      <point x="258" y="1550"/>
      <point x="159" y="1467"/>
      <point x="159" y="1204" type="curve" smooth="yes"/>
      <point x="159" y="1166" type="line"/>
      <point x="418" y="1166" type="line"/>
      <point x="418" y="1290" type="line" smooth="yes"/>
      <point x="421" y="1384"/>
      <point x="459" y="1395"/>
      <point x="575" y="1395" type="curve" smooth="yes"/>
      <point x="692" y="1395"/>
      <point x="727" y="1377"/>
      <point x="727" y="1302" type="curve" smooth="yes"/>
      <point x="727" y="1230"/>
      <point x="734" y="1083"/>
      <point x="696" y="1083" type="curve" smooth="yes"/>
      <point x="465" y="1083" type="line"/>
      <point x="465" y="952" type="line"/>
      <point x="696" y="952" type="line" smooth="yes"/>
      <point x="730" y="952"/>
      <point x="727" y="787"/>
      <point x="727" y="727" type="curve" smooth="yes"/>
      <point x="727" y="649"/>
      <point x="689" y="622"/>
      <point x="585" y="622" type="curve" smooth="yes"/>
      <point x="442" y="622"/>
      <point x="414" y="650"/>
      <point x="417" y="734" type="curve" smooth="yes"/>
      <point x="418" y="865" type="line"/>
      <point x="159" y="865" type="line"/>
      <point x="159" y="816" type="line" smooth="yes"/>
      <point x="159" y="566"/>
      <point x="258" y="460"/>
    </contour>
  </outline>
</glyph>
<glyph name="AE" format="1">
  <advance width="2010"/>
  <unicode hex="00C6"/>
  <outline>
    <contour>
      <point x="1139" y="1529" type="move" name="top"/>
    </contour>
    <contour>
      <point x="59" y="0" type="line"/>
      <point x="439" y="0" type="line"/>
      <point x="622" y="366" type="line"/>
      <point x="1026" y="366" type="line"/>
      <point x="1026" y="0" type="line"/>
      <point x="1921" y="0" type="line"/>
      <point x="1921" y="201" type="line"/>
      <point x="1376" y="201" type="line"/>
      <point x="1376" y="703" type="line"/>
      <point x="1830" y="703" type="line"/>
      <point x="1830" y="907" type="line"/>
      <point x="1376" y="907" type="line"/>
      <point x="1376" y="1337" type="line"/>
      <point x="1909" y="1337" type="line"/>
      <point x="1909" y="1536" type="line"/>
      <point x="831" y="1536" type="line"/>
    </contour>
    <contour>
      <point x="690" y="547" type="line"/>
      <point x="1026" y="1225" type="line"/>
      <point x="1026" y="547" type="line"/>
    </contour>
  </outline>
</glyph>
<glyph name="ae" format="1">
  <advance width="1933"/>
  <unicode hex="00E6"/>
  <outline>
    <contour>
      <point x="934" y="1172" type="move" name="top"/>
    </contour>
    <contour>
      <point x="508" y="-24" type="curve" smooth="yes"/>
      <point x="711" y="-24"/>
      <point x="867" y="18"/>
      <point x="954" y="125" type="curve"/>
      <point x="1023" y="36"/>
      <point x="1126" y="-24"/>
      <point x="1329" y="-24" type="curve" smooth="yes"/>
      <point x="1585" y="-24"/>
      <point x="1744" y="13"/>
      <point x="1768" y="237" type="curve"/>
      <point x="1775" y="260"/>
      <point x="1779" y="355"/>
      <point x="1780" y="392" type="curve"/>
      <point x="1472" y="407" type="line"/>
      <point x="1468" y="372"/>
      <point x="1472" y="232"/>
      <point x="1459" y="212" type="curve" smooth="yes"/>
      <point x="1446" y="191"/>
      <point x="1390" y="179"/>
      <point x="1320" y="179" type="curve" smooth="yes"/>
      <point x="1237" y="179"/>
      <point x="1168" y="190"/>
      <point x="1147" y="214" type="curve" smooth="yes"/>
      <point x="1125" y="239"/>
      <point x="1124" y="434"/>
      <point x="1124" y="575" type="curve"/>
      <point x="1797" y="574" type="line"/>
      <point x="1797" y="615"/>
      <point x="1797" y="813"/>
      <point x="1795" y="844" type="curve" smooth="yes"/>
      <point x="1786" y="1164"/>
      <point x="1647" y="1223"/>
      <point x="1312" y="1223" type="curve" smooth="yes"/>
      <point x="1145" y="1223"/>
      <point x="1013" y="1179"/>
      <point x="973" y="1099" type="curve"/>
      <point x="945" y="1190"/>
      <point x="784" y="1223"/>
      <point x="640" y="1223" type="curve" smooth="yes"/>
      <point x="381" y="1223"/>
      <point x="172" y="1190"/>
      <point x="172" y="933" type="curve" smooth="yes"/>
      <point x="172" y="907"/>
      <point x="173" y="883"/>
      <point x="177" y="858" type="curve"/>
      <point x="467" y="864" type="line"/>
      <point x="469" y="903"/>
      <point x="466" y="988"/>
      <point x="483" y="1001" type="curve" smooth="yes"/>
      <point x="499" y="1015"/>
      <point x="557" y="1019"/>
      <point x="632" y="1019" type="curve" smooth="yes"/>
      <point x="731" y="1019"/>
      <point x="788" y="1007"/>
      <point x="788" y="968" type="curve" smooth="yes"/>
      <point x="788" y="683" type="line"/>
      <point x="423" y="683"/>
      <point x="110" y="672"/>
      <point x="110" y="369" type="curve" smooth="yes"/>
      <point x="110" y="89"/>
      <point x="228" y="-24"/>
    </contour>
    <contour>
      <point x="575" y="179" type="curve" smooth="yes"/>
      <point x="520" y="179"/>
      <point x="464" y="184"/>
      <point x="450" y="201" type="curve" smooth="yes"/>
      <point x="435" y="219"/>
      <point x="435" y="405"/>
      <point x="435" y="464" type="curve" smooth="yes"/>
      <point x="435" y="503"/>
      <point x="492" y="526"/>
      <point x="621" y="534" type="curve" smooth="yes"/>
      <point x="659" y="536"/>
      <point x="732" y="537"/>
      <point x="788" y="537" type="curve"/>
      <point x="788" y="287" type="line" smooth="yes"/>
      <point x="788" y="225"/>
      <point x="714" y="179"/>
    </contour>
    <contour>
      <point x="1124" y="719" type="line"/>
      <point x="1126" y="790"/>
      <point x="1123" y="949"/>
      <point x="1141" y="978" type="curve" smooth="yes"/>
      <point x="1160" y="1008"/>
      <point x="1226" y="1019"/>
      <point x="1312" y="1019" type="curve" smooth="yes"/>
      <point x="1399" y="1019"/>
      <point x="1452" y="1008"/>
      <point x="1455" y="962" type="curve" smooth="yes"/>
      <point x="1459" y="919"/>
      <point x="1461" y="764"/>
      <point x="1462" y="719" type="curve"/>
    </contour>
  </outline>
</glyph>
<glyph name="eth" format="1">
  <advance width="1375"/>
  <unicode hex="00F0"/>
  <outline>
    <contour>
      <point x="694" y="-30" type="curve" smooth="yes"/>
      <point x="1113" y="-30"/>
      <point x="1222" y="167"/>
      <point x="1222" y="608" type="curve" smooth="yes"/>
      <point x="1222" y="1060"/>
      <point x="1161" y="1310"/>
      <point x="975" y="1461" type="curve"/>
      <point x="1137" y="1600" type="line"/>
      <point x="1073" y="1688" type="line"/>
      <point x="885" y="1527" type="line"/>
      <point x="772" y="1593"/>
      <point x="627" y="1637"/>
      <point x="432" y="1669" type="curve"/>
      <point x="337" y="1452" type="line"/>
      <point x="509" y="1414"/>
      <point x="612" y="1394"/>
      <point x="685" y="1358" type="curve"/>
      <point x="516" y="1213" type="line"/>
      <point x="580" y="1125" type="line"/>
      <point x="772" y="1289" type="line"/>
      <point x="834" y="1227"/>
      <point x="876" y="1122"/>
      <point x="885" y="940" type="curve"/>
      <point x="873" y="996"/>
      <point x="744" y="1024"/>
      <point x="603" y="1024" type="curve" smooth="yes"/>
      <point x="265" y="1024"/>
      <point x="143" y="882"/>
      <point x="140" y="582" type="curve" smooth="yes"/>
      <point x="140" y="577"/>
      <point x="139" y="450"/>
      <point x="139" y="444" type="curve" smooth="yes"/>
      <point x="139" y="85"/>
      <point x="283" y="-30"/>
    </contour>
    <contour>
      <point x="690" y="163" type="curve" smooth="yes"/>
      <point x="520" y="163"/>
      <point x="471" y="166"/>
      <point x="471" y="225" type="curve" smooth="yes"/>
      <point x="472" y="764" type="line" smooth="yes"/>
      <point x="472" y="826"/>
      <point x="510" y="834"/>
      <point x="692" y="834" type="curve" smooth="yes"/>
      <point x="852" y="834"/>
      <point x="884" y="799"/>
      <point x="884" y="729" type="curve" smooth="yes"/>
      <point x="884" y="219" type="line" smooth="yes"/>
      <point x="884" y="172"/>
      <point x="859" y="163"/>
    </contour>
  </outline>
</glyph>
<glyph name="divide" format="1">
  <advance width="901"/>
  <unicode hex="00F7"/>
  <outline>
    <contour>
      <point x="452" y="134" type="curve" smooth="yes"/>
      <point x="538" y="134"/>
      <point x="592" y="203"/>
      <point x="592" y="288" type="curve" smooth="yes"/>
      <point x="592" y="366"/>
      <point x="536" y="442"/>
      <point x="466" y="442" type="curve" smooth="yes"/>
      <point x="365" y="442"/>
      <point x="312" y="383"/>
      <point x="312" y="288" type="curve" smooth="yes"/>
      <point x="312" y="193"/>
      <point x="371" y="134"/>
    </contour>
    <contour>
      <point x="108" y="614" type="line"/>
      <point x="795" y="614" type="line"/>
      <point x="795" y="753" type="line"/>
      <point x="108" y="753" type="line"/>
    </contour>
    <contour>
      <point x="452" y="925" type="curve" smooth="yes"/>
      <point x="540" y="925"/>
      <point x="592" y="991"/>
      <point x="592" y="1079" type="curve" smooth="yes"/>
      <point x="592" y="1157"/>
      <point x="536" y="1233"/>
      <point x="466" y="1233" type="curve" smooth="yes"/>
      <point x="365" y="1233"/>
      <point x="312" y="1175"/>
      <point x="312" y="1079" type="curve" smooth="yes"/>
      <point x="312" y="984"/>
      <point x="370" y="925"/>
    </contour>
  </outline>
</glyph>
<glyph name="dotlessi" format="1">
  <advance width="680"/>
  <unicode hex="0131"/>
  <outline>
    <contour>
      <point x="361" y="0" type="move" name="ogonek"/>
    </contour>
    <contour>
      <point x="339" y="1172" type="move" name="top"/>
    </contour>
    <contour>
      <point x="180" y="1186" type="line"/>
      <point x="180" y="0" type="line"/>
      <point x="515" y="0" type="line"/>
      <point x="515" y="1186" type="line"/>
    </contour>
  </outline>
</glyph>
<glyph name="kgreenlandic" format="1">
  <advance width="1355"/>
  <unicode hex="0138"/>
  <outline>
    <contour>
      <point x="151" y="0" type="line"/>
      <point x="492" y="0" type="line"/>
      <point x="492" y="386" type="line"/>
      <point x="591" y="504" type="line"/>
      <point x="902" y="0" type="line"/>
      <point x="1251" y="0" type="line"/>
      <point x="836" y="699" type="line"/>
      <point x="1220" y="1186" type="line"/>
      <point x="862" y="1186" type="line"/>
      <point x="633" y="882" type="line"/>
      <point x="599" y="846"/>
      <point x="526" y="744"/>
      <point x="491" y="711" type="curve"/>
      <point x="491" y="738"/>
      <point x="492" y="846"/>
      <point x="492" y="874" type="curve" smooth="yes"/>
      <point x="492" y="1186" type="line"/>
      <point x="151" y="1177" type="line"/>
    </contour>
  </outline>
</glyph>
<glyph name="Lslash" format="1">
  <advance width="1099"/>
  <unicode hex="0141"/>
  <outline>
    <component base="L"/>
    <contour>
      <point x="43" y="566" type="line"/>
      <point x="797" y="909" type="line"/>
      <point x="797" y="1166" type="line"/>
      <point x="43" y="824" type="line"/>
    </contour>
  </outline>
</glyph>
<glyph name="lslash" format="1">
  <advance width="754"/>
  <unicode hex="0142"/>
  <outline>
    <component base="l" xOffset="19"/>
    <contour>
      <point x="59" y="730" type="line"/>
      <point x="700" y="984" type="line"/>
      <point x="700" y="1215" type="line"/>
      <point x="59" y="964" type="line"/>
    </contour>
  </outline>
</glyph>
<glyph name="florin" format="1">
  <advance width="940"/>
  <unicode hex="0192"/>
  <outline>
    <contour>
      <point x="327" y="-319" type="curve" smooth="yes"/>
      <point x="513" y="-315"/>
      <point x="540" y="-222"/>
      <point x="540" y="-56" type="curve" smooth="yes"/>
      <point x="540" y="757" type="line"/>
      <point x="738" y="757" type="line"/>
      <point x="738" y="887" type="line"/>
      <point x="540" y="887" type="line"/>
      <point x="539" y="1256" type="line" smooth="yes"/>
      <point x="539" y="1372"/>
      <point x="539" y="1392"/>
      <point x="670" y="1392" type="curve" smooth="yes"/>
      <point x="696" y="1392"/>
      <point x="722" y="1391"/>
      <point x="748" y="1389" type="curve"/>
      <point x="748" y="1543" type="line"/>
      <point x="685" y="1555"/>
      <point x="625" y="1561"/>
      <point x="572" y="1561" type="curve" smooth="yes"/>
      <point x="410" y="1561"/>
      <point x="341" y="1484"/>
      <point x="342" y="1259" type="curve" smooth="yes"/>
      <point x="343" y="887" type="line"/>
      <point x="181" y="887" type="line"/>
      <point x="181" y="757" type="line"/>
      <point x="343" y="757" type="line"/>
      <point x="343" y="-167" type="line"/>
      <point x="175" y="-167" type="line"/>
      <point x="175" y="-299" type="line"/>
      <point x="265" y="-315"/>
      <point x="299" y="-319"/>
    </contour>
  </outline>
</glyph>
<glyph name="circumflex" format="1">
  <advance width="992"/>
  <unicode hex="02C6"/>
  <outline>
    <contour>
      <point x="544" y="1172" type="move" name="_top"/>
    </contour>
    <contour>
      <point x="874" y="1357" type="curve" smooth="yes"/>
      <point x="892" y="1373"/>
      <point x="894" y="1402"/>
      <point x="878" y="1429" type="curve" smooth="yes"/>
      <point x="659" y="1782" type="line" smooth="yes"/>
      <point x="631" y="1826"/>
      <point x="590" y="1843"/>
      <point x="548" y="1843" type="curve" smooth="yes"/>
      <point x="505" y="1843"/>
      <point x="464" y="1825"/>
      <point x="436" y="1782" type="curve" smooth="yes"/>
      <point x="218" y="1429" type="line" smooth="yes"/>
      <point x="201" y="1401"/>
      <point x="204" y="1373"/>
      <point x="222" y="1357" type="curve" smooth="yes"/>
      <point x="239" y="1341"/>
      <point x="269" y="1338"/>
      <point x="290" y="1357" type="curve" smooth="yes"/>
      <point x="548" y="1593" type="line"/>
      <point x="805" y="1357" type="line" smooth="yes"/>
      <point x="826" y="1338"/>
      <point x="856" y="1340"/>
    </contour>
  </outline>
</glyph>
<glyph name="caron" format="1">
  <advance width="992"/>
  <unicode hex="02C7"/>
  <outline>
    <contour>
      <point x="544" y="1172" type="move" name="_top"/>
    </contour>
    <contour>
      <point x="548" y="1337" type="curve" smooth="yes"/>
      <point x="590" y="1337"/>
      <point x="631" y="1354"/>
      <point x="659" y="1398" type="curve" smooth="yes"/>
      <point x="878" y="1751" type="line" smooth="yes"/>
      <point x="894" y="1778"/>
      <point x="892" y="1807"/>
      <point x="874" y="1824" type="curve" smooth="yes"/>
      <point x="857" y="1840"/>
      <point x="826" y="1843"/>
      <point x="805" y="1823" type="curve" smooth="yes"/>
      <point x="548" y="1587" type="line"/>
      <point x="290" y="1823" type="line" smooth="yes"/>
      <point x="269" y="1842"/>
      <point x="239" y="1839"/>
      <point x="222" y="1823" type="curve" smooth="yes"/>
      <point x="204" y="1807"/>
      <point x="201" y="1779"/>
      <point x="218" y="1751" type="curve" smooth="yes"/>
      <point x="436" y="1398" type="line" smooth="yes"/>
      <point x="464" y="1355"/>
      <point x="505" y="1337"/>
    </contour>
  </outline>
</glyph>
<glyph name="uni02C9" format="1">
  <advance width="911"/>
  <unicode hex="02C9"/>
  <outline>
    <contour>
      <point x="501" y="1172" type="move" name="_top"/>
    </contour>
    <contour>
      <point x="160" y="1576" type="line"/>
      <point x="160" y="1403" type="line"/>
      <point x="844" y="1403" type="line"/>
      <point x="844" y="1576" type="line"/>
    </contour>
  </outline>
</glyph>
<glyph name="breve" format="1">
  <advance width="975"/>
  <unicode hex="02D8"/>
  <outline>
    <contour>
      <point x="538" y="1172" type="move" name="_top"/>
    </contour>
    <contour>
      <point x="690" y="1710" type="line"/>
      <point x="690" y="1590"/>
      <point x="642" y="1535"/>
      <point x="537" y="1535" type="curve" smooth="yes"/>
      <point x="433" y="1535"/>
      <point x="385" y="1590"/>
      <point x="385" y="1710" type="curve"/>
      <point x="186" y="1710" type="line"/>
      <point x="186" y="1462"/>
      <point x="297" y="1348"/>
      <point x="537" y="1348" type="curve" smooth="yes"/>
      <point x="778" y="1348"/>
      <point x="889" y="1462"/>
      <point x="889" y="1710" type="curve"/>
    </contour>
  </outline>
</glyph>
<glyph name="ring" format="1">
  <advance width="909"/>
  <unicode hex="02DA"/>
  <outline>
    <contour>
      <point x="492" y="1172" type="move" name="_top"/>
    </contour>
    <contour>
      <point x="208" y="1604" type="curve" smooth="yes"/>
      <point x="208" y="1430"/>
      <point x="317" y="1323"/>
      <point x="492" y="1323" type="curve" smooth="yes"/>
      <point x="667" y="1323"/>
      <point x="778" y="1430"/>
      <point x="778" y="1604" type="curve" smooth="yes"/>
      <point x="778" y="1778"/>
      <point x="667" y="1889"/>
      <point x="492" y="1889" type="curve" smooth="yes"/>
      <point x="317" y="1889"/>
      <point x="208" y="1778"/>
    </contour>
    <contour>
      <point x="618" y="1603" type="curve" smooth="yes"/>
      <point x="618" y="1512"/>
      <point x="574" y="1464"/>
      <point x="492" y="1464" type="curve" smooth="yes"/>
      <point x="408" y="1464"/>
      <point x="365" y="1515"/>
      <point x="365" y="1604" type="curve" smooth="yes"/>
      <point x="365" y="1697"/>
      <point x="405" y="1747"/>
      <point x="492" y="1747" type="curve" smooth="yes"/>
      <point x="575" y="1747"/>
      <point x="618" y="1699"/>
    </contour>
  </outline>
</glyph>
<glyph name="tilde" format="1">
  <advance width="1181"/>
  <unicode hex="02DC"/>
  <outline>
    <contour>
      <point x="599" y="1172" type="move" name="_top"/>
    </contour>
    <contour>
      <point x="762" y="1337" type="curve" smooth="yes"/>
      <point x="888" y="1337"/>
      <point x="985" y="1457"/>
      <point x="1017" y="1587" type="curve"/>
      <point x="951" y="1668" type="line"/>
      <point x="884" y="1600"/>
      <point x="840" y="1569"/>
      <point x="775" y="1569" type="curve" smooth="yes"/>
      <point x="690" y="1569"/>
      <point x="603" y="1669"/>
      <point x="457" y="1669" type="curve" smooth="yes"/>
      <point x="316" y="1669"/>
      <point x="225" y="1593"/>
      <point x="180" y="1444" type="curve"/>
      <point x="236" y="1367" type="line"/>
      <point x="286" y="1424"/>
      <point x="339" y="1454"/>
      <point x="406" y="1454" type="curve" smooth="yes"/>
      <point x="530" y="1454"/>
      <point x="630" y="1337"/>
    </contour>
  </outline>
</glyph>
<glyph name="hungarumlaut" format="1">
  <advance width="1367"/>
  <unicode hex="02DD"/>
  <outline>
    <contour>
      <point x="560" y="1172" type="move" name="_top"/>
    </contour>
    <contour>
      <point x="240" y="1349" type="curve"/>
      <point x="317" y="1376"/>
      <point x="656" y="1485"/>
      <point x="710" y="1517" type="curve" smooth="yes"/>
      <point x="771" y="1550"/>
      <point x="797" y="1605"/>
      <point x="797" y="1656" type="curve" smooth="yes"/>
      <point x="797" y="1726"/>
      <point x="748" y="1790"/>
      <point x="668" y="1790" type="curve" smooth="yes"/>
      <point x="634" y="1790"/>
      <point x="601" y="1776"/>
      <point x="569" y="1754" type="curve" smooth="yes"/>
      <point x="508" y="1711"/>
      <point x="267" y="1472"/>
      <point x="207" y="1406" type="curve" smooth="yes"/>
      <point x="193" y="1391"/>
      <point x="193" y="1366"/>
      <point x="200" y="1357" type="curve" smooth="yes"/>
      <point x="206" y="1349"/>
      <point x="228" y="1343"/>
    </contour>
    <contour>
      <point x="773" y="1349" type="curve"/>
      <point x="850" y="1376"/>
      <point x="1188" y="1485"/>
      <point x="1243" y="1517" type="curve" smooth="yes"/>
      <point x="1304" y="1550"/>
      <point x="1330" y="1605"/>
      <point x="1330" y="1656" type="curve" smooth="yes"/>
      <point x="1330" y="1726"/>
      <point x="1281" y="1790"/>
      <point x="1201" y="1790" type="curve" smooth="yes"/>
      <point x="1167" y="1790"/>
      <point x="1134" y="1776"/>
      <point x="1102" y="1754" type="curve" smooth="yes"/>
      <point x="1041" y="1711"/>
      <point x="800" y="1472"/>
      <point x="740" y="1406" type="curve"/>
      <point x="725" y="1391"/>
      <point x="726" y="1365"/>
      <point x="733" y="1357" type="curve" smooth="yes"/>
      <point x="739" y="1349"/>
      <point x="761" y="1343"/>
    </contour>
  </outline>
</glyph>
<glyph name="breveinvertedcomb" format="1">
  <advance width="1038"/>
  <unicode hex="0311"/>
  <outline>
    <contour>
      <point x="587" y="1172" type="move" name="_top"/>
    </contour>
    <contour>
      <point x="226" y="1348" type="curve"/>
      <point x="425" y="1348" type="line"/>
      <point x="425" y="1469"/>
      <point x="473" y="1524"/>
      <point x="577" y="1524" type="curve" smooth="yes"/>
      <point x="681" y="1524"/>
      <point x="730" y="1469"/>
      <point x="730" y="1348" type="curve"/>
      <point x="928" y="1348" type="line"/>
      <point x="928" y="1597"/>
      <point x="818" y="1710"/>
      <point x="577" y="1710" type="curve" smooth="yes"/>
      <point x="336" y="1710"/>
      <point x="226" y="1597"/>
    </contour>
  </outline>
</glyph>
<glyph name="commaturnedabovecomb" format="1">
  <advance width="752"/>
  <unicode hex="0312"/>
  <outline>
    <contour>
      <point x="412" y="1172" type="move" name="_top"/>
    </contour>
    <contour>
      <point x="413" y="1330" type="curve" smooth="yes"/>
      <point x="512" y="1330"/>
      <point x="586" y="1415"/>
      <point x="586" y="1505" type="curve" smooth="yes"/>
      <point x="586" y="1623"/>
      <point x="524" y="1685"/>
      <point x="430" y="1692" type="curve"/>
      <point x="432" y="1778"/>
      <point x="490" y="1836"/>
      <point x="569" y="1838" type="curve"/>
      <point x="569" y="1920" type="line"/>
      <point x="379" y="1920"/>
      <point x="227" y="1748"/>
      <point x="227" y="1556" type="curve" smooth="yes"/>
      <point x="227" y="1426"/>
      <point x="293" y="1330"/>
    </contour>
  </outline>
</glyph>
<glyph name="commaaccent" format="1">
  <advance width="691"/>
  <unicode hex="0326"/>
  <outline>
    <contour>
      <point x="376" y="0" type="move" name="_bot"/>
    </contour>
    <contour>
      <point x="219" y="-710" type="line"/>
      <point x="416" y="-710"/>
      <point x="561" y="-548"/>
      <point x="561" y="-356" type="curve" smooth="yes"/>
      <point x="561" y="-226"/>
      <point x="499" y="-147"/>
      <point x="380" y="-147" type="curve" smooth="yes"/>
      <point x="281" y="-147"/>
      <point x="202" y="-205"/>
      <point x="202" y="-312" type="curve" smooth="yes"/>
      <point x="202" y="-419"/>
      <point x="264" y="-476"/>
      <point x="358" y="-483" type="curve"/>
      <point x="356" y="-568"/>
      <point x="298" y="-627"/>
      <point x="219" y="-629" type="curve"/>
    </contour>
  </outline>
</glyph>
<glyph name="Sigma" format="1">
  <advance width="1277"/>
  <unicode hex="03A3"/>
  <outline>
    <contour>
      <point x="145" y="0" type="line"/>
      <point x="1191" y="0" type="line"/>
      <point x="1191" y="245" type="line"/>
      <point x="514" y="245" type="line"/>
      <point x="951" y="730" type="line"/>
      <point x="951" y="827" type="line"/>
      <point x="515" y="1299" type="line"/>
      <point x="1143" y="1299" type="line"/>
      <point x="1143" y="1536" type="line"/>
      <point x="145" y="1536" type="line"/>
      <point x="145" y="1300" type="line"/>
      <point x="600" y="801" type="line"/>
      <point x="145" y="264" type="line"/>
    </contour>
  </outline>
</glyph>
<glyph name="Omega" format="1">
  <advance width="1816"/>
  <unicode hex="03A9"/>
  <outline>
    <contour>
      <point x="104" y="0" type="line"/>
      <point x="821" y="0" type="line"/>
      <point x="825" y="187" type="line"/>
      <point x="550" y="329"/>
      <point x="417" y="539"/>
      <point x="417" y="813" type="curve" smooth="yes"/>
      <point x="417" y="1148"/>
      <point x="643" y="1305"/>
      <point x="908" y="1305" type="curve" smooth="yes"/>
      <point x="1174" y="1305"/>
      <point x="1399" y="1148"/>
      <point x="1399" y="813" type="curve" smooth="yes"/>
      <point x="1399" y="539"/>
      <point x="1270" y="329"/>
      <point x="991" y="187" type="curve"/>
      <point x="995" y="0" type="line"/>
      <point x="1712" y="0" type="line"/>
      <point x="1712" y="196" type="line"/>
      <point x="1283" y="196" type="line"/>
      <point x="1548" y="331"/>
      <point x="1685" y="546"/>
      <point x="1685" y="818" type="curve" smooth="yes"/>
      <point x="1685" y="1311"/>
      <point x="1317" y="1545"/>
      <point x="908" y="1545" type="curve" smooth="yes"/>
      <point x="499" y="1545"/>
      <point x="131" y="1311"/>
      <point x="131" y="818" type="curve" smooth="yes"/>
      <point x="131" y="546"/>
      <point x="268" y="331"/>
      <point x="533" y="196" type="curve"/>
      <point x="104" y="196" type="line"/>
    </contour>
  </outline>
</glyph>
<glyph name="endash" format="1">
  <advance width="1163"/>
  <unicode hex="2013"/>
  <outline>
    <contour>
      <point x="170" y="528" type="line"/>
      <point x="989" y="528" type="line"/>
      <point x="989" y="825" type="line"/>
      <point x="170" y="825" type="line"/>
    </contour>
  </outline>
</glyph>
<glyph name="emdash" format="1">
  <advance width="1836"/>
  <unicode hex="2014"/>
  <outline>
    <contour>
      <point x="122" y="528" type="line"/>
      <point x="1708" y="528" type="line"/>
      <point x="1708" y="825" type="line"/>
      <point x="122" y="825" type="line"/>
    </contour>
  </outline>
</glyph>
<glyph name="quoteright" format="1">
  <advance width="716"/>
  <unicode hex="2019"/>
  <outline>
    <contour>
      <point x="202" y="996" type="line"/>
      <point x="345" y="990"/>
      <point x="535" y="1174"/>
      <point x="535" y="1368" type="curve" smooth="yes"/>
      <point x="535" y="1489"/>
      <point x="478" y="1586"/>
      <point x="373" y="1586" type="curve" smooth="yes"/>
      <point x="265" y="1586"/>
      <point x="196" y="1513"/>
      <point x="196" y="1423" type="curve" smooth="yes"/>
      <point x="196" y="1310"/>
      <point x="256" y="1251"/>
      <point x="346" y="1247" type="curve"/>
      <point x="344" y="1155"/>
      <point x="286" y="1082"/>
      <point x="202" y="1082" type="curve"/>
    </contour>
  </outline>
</glyph>
<glyph name="quotedblright" format="1">
  <advance width="1140"/>
  <unicode hex="201D"/>
  <outline>
    <contour>
      <point x="171" y="996" type="line"/>
      <point x="315" y="990"/>
      <point x="506" y="1174"/>
      <point x="506" y="1368" type="curve" smooth="yes"/>
      <point x="506" y="1489"/>
      <point x="446" y="1586"/>
      <point x="342" y="1586" type="curve" smooth="yes"/>
      <point x="234" y="1586"/>
      <point x="165" y="1513"/>
      <point x="165" y="1423" type="curve" smooth="yes"/>
      <point x="165" y="1310"/>
      <point x="225" y="1251"/>
      <point x="315" y="1247" type="curve"/>
      <point x="312" y="1155"/>
      <point x="254" y="1082"/>
      <point x="171" y="1082" type="curve"/>
    </contour>
    <contour>
      <point x="659" y="996" type="line"/>
      <point x="803" y="990"/>
      <point x="992" y="1174"/>
      <point x="992" y="1368" type="curve" smooth="yes"/>
      <point x="992" y="1489"/>
      <point x="936" y="1586"/>
      <point x="830" y="1586" type="curve" smooth="yes"/>
      <point x="721" y="1586"/>
      <point x="653" y="1511"/>
      <point x="653" y="1423" type="curve" smooth="yes"/>
      <point x="653" y="1310"/>
      <point x="713" y="1251"/>
      <point x="803" y="1247" type="curve"/>
      <point x="801" y="1153"/>
      <point x="743" y="1082"/>
      <point x="659" y="1082" type="curve"/>
    </contour>
  </outline>
</glyph>
<glyph name="dagger" format="1">
  <advance width="1217"/>
  <unicode hex="2020"/>
  <outline>
    <contour>
      <point x="606" y="7" type="curve" smooth="yes"/>
      <point x="686" y="7"/>
      <point x="743" y="64"/>
      <point x="743" y="179" type="curve" smooth="yes"/>
      <point x="743" y="320"/>
      <point x="708" y="534"/>
      <point x="654" y="969" type="curve"/>
      <point x="772" y="924"/>
      <point x="870" y="887"/>
      <point x="929" y="887" type="curve" smooth="yes"/>
      <point x="1002" y="887"/>
      <point x="1046" y="937"/>
      <point x="1046" y="1003" type="curve" smooth="yes"/>
      <point x="1046" y="1079"/>
      <point x="1011" y="1135"/>
      <point x="939" y="1135" type="curve" smooth="yes"/>
      <point x="873" y="1135"/>
      <point x="770" y="1095"/>
      <point x="648" y="1049" type="curve"/>
      <point x="700" y="1221"/>
      <point x="739" y="1351"/>
      <point x="739" y="1420" type="curve" smooth="yes"/>
      <point x="739" y="1537"/>
      <point x="681" y="1585"/>
      <point x="606" y="1585" type="curve" smooth="yes"/>
      <point x="541" y="1585"/>
      <point x="475" y="1539"/>
      <point x="475" y="1424" type="curve" smooth="yes"/>
      <point x="475" y="1347"/>
      <point x="511" y="1218"/>
      <point x="562" y="1052" type="curve"/>
      <point x="435" y="1102"/>
      <point x="364" y="1135"/>
      <point x="272" y="1135" type="curve" smooth="yes"/>
      <point x="208" y="1135"/>
      <point x="171" y="1075"/>
      <point x="171" y="1009" type="curve" smooth="yes"/>
      <point x="171" y="938"/>
      <point x="210" y="887"/>
      <point x="288" y="887" type="curve" smooth="yes"/>
      <point x="364" y="887"/>
      <point x="514" y="947"/>
      <point x="558" y="967" type="curve"/>
      <point x="512" y="599"/>
      <point x="472" y="358"/>
      <point x="472" y="179" type="curve" smooth="yes"/>
      <point x="472" y="67"/>
      <point x="523" y="7"/>
    </contour>
  </outline>
</glyph>
<glyph name="daggerdbl" format="1">
  <advance width="1303"/>
  <unicode hex="2021"/>
  <outline>
    <contour>
      <point x="649" y="-38" type="curve" smooth="yes"/>
      <point x="740" y="-38"/>
      <point x="812" y="19"/>
      <point x="812" y="121" type="curve" smooth="yes"/>
      <point x="812" y="209"/>
      <point x="758" y="350"/>
      <point x="711" y="475" type="curve"/>
      <point x="778" y="448"/>
      <point x="894" y="385"/>
      <point x="1014" y="385" type="curve" smooth="yes"/>
      <point x="1084" y="385"/>
      <point x="1124" y="448"/>
      <point x="1124" y="513" type="curve" smooth="yes"/>
      <point x="1124" y="587"/>
      <point x="1080" y="643"/>
      <point x="1000" y="643" type="curve" smooth="yes"/>
      <point x="939" y="643"/>
      <point x="837" y="604"/>
      <point x="714" y="555" type="curve"/>
      <point x="714" y="991" type="line"/>
      <point x="834" y="943"/>
      <point x="934" y="904"/>
      <point x="998" y="904" type="curve" smooth="yes"/>
      <point x="1077" y="904"/>
      <point x="1124" y="956"/>
      <point x="1124" y="1026" type="curve" smooth="yes"/>
      <point x="1124" y="1106"/>
      <point x="1085" y="1163"/>
      <point x="1006" y="1163" type="curve" smooth="yes"/>
      <point x="945" y="1163"/>
      <point x="841" y="1122"/>
      <point x="711" y="1072" type="curve"/>
      <point x="758" y="1207"/>
      <point x="812" y="1339"/>
      <point x="812" y="1427" type="curve" smooth="yes"/>
      <point x="812" y="1526"/>
      <point x="739" y="1585"/>
      <point x="649" y="1585" type="curve" smooth="yes"/>
      <point x="558" y="1585"/>
      <point x="487" y="1528"/>
      <point x="487" y="1425" type="curve" smooth="yes"/>
      <point x="487" y="1329"/>
      <point x="555" y="1153"/>
      <point x="585" y="1075" type="curve"/>
      <point x="458" y="1127"/>
      <point x="361" y="1163"/>
      <point x="303" y="1163" type="curve" smooth="yes"/>
      <point x="221" y="1163"/>
      <point x="178" y="1106"/>
      <point x="178" y="1032" type="curve" smooth="yes"/>
      <point x="178" y="956"/>
      <point x="219" y="904"/>
      <point x="303" y="904" type="curve" smooth="yes"/>
      <point x="361" y="904"/>
      <point x="457" y="938"/>
      <point x="584" y="989" type="curve"/>
      <point x="584" y="557" type="line"/>
      <point x="459" y="609"/>
      <point x="363" y="643"/>
      <point x="304" y="643" type="curve" smooth="yes"/>
      <point x="220" y="643"/>
      <point x="178" y="590"/>
      <point x="178" y="514" type="curve" smooth="yes"/>
      <point x="178" y="440"/>
      <point x="222" y="385"/>
      <point x="303" y="385" type="curve" smooth="yes"/>
      <point x="363" y="385"/>
      <point x="459" y="420"/>
      <point x="585" y="472" type="curve"/>
      <point x="526" y="307"/>
      <point x="487" y="209"/>
      <point x="487" y="120" type="curve" smooth="yes"/>
      <point x="487" y="18"/>
      <point x="559" y="-38"/>
    </contour>
  </outline>
</glyph>
<glyph name="bullet" format="1">
  <advance width="1098"/>
  <unicode hex="2022"/>
  <outline>
    <contour>
      <point x="556" y="253" type="curve" smooth="yes"/>
      <point x="828" y="253"/>
      <point x="943" y="441"/>
      <point x="943" y="691" type="curve" smooth="yes"/>
      <point x="943" y="954"/>
      <point x="821" y="1129"/>
      <point x="558" y="1129" type="curve" smooth="yes"/>
      <point x="282" y="1129"/>
      <point x="151" y="961"/>
      <point x="151" y="690" type="curve" smooth="yes"/>
      <point x="151" y="431"/>
      <point x="272" y="253"/>
    </contour>
  </outline>
</glyph>
<glyph name="ellipsis" format="1">
  <advance width="1799"/>
  <unicode hex="2026"/>
  <outline>
    <contour>
      <point x="303" y="-38" type="curve" smooth="yes"/>
      <point x="396" y="-38"/>
      <point x="466" y="30"/>
      <point x="466" y="141" type="curve" smooth="yes"/>
      <point x="466" y="249"/>
      <point x="392" y="319"/>
      <point x="303" y="319" type="curve" smooth="yes"/>
      <point x="208" y="319"/>
      <point x="138" y="251"/>
      <point x="138" y="141" type="curve" smooth="yes"/>
      <point x="138" y="30"/>
      <point x="213" y="-38"/>
    </contour>
    <contour>
      <point x="900" y="-38" type="curve" smooth="yes"/>
      <point x="993" y="-38"/>
      <point x="1063" y="30"/>
      <point x="1063" y="141" type="curve" smooth="yes"/>
      <point x="1063" y="254"/>
      <point x="988" y="319"/>
      <point x="898" y="319" type="curve" smooth="yes"/>
      <point x="808" y="319"/>
      <point x="735" y="251"/>
      <point x="735" y="141" type="curve" smooth="yes"/>
      <point x="735" y="33"/>
      <point x="809" y="-38"/>
    </contour>
    <contour>
      <point x="1495" y="-38" type="curve" smooth="yes"/>
      <point x="1589" y="-38"/>
      <point x="1659" y="30"/>
      <point x="1659" y="141" type="curve" smooth="yes"/>
      <point x="1659" y="246"/>
      <point x="1586" y="319"/>
      <point x="1504" y="319" type="curve" smooth="yes"/>
      <point x="1402" y="319"/>
      <point x="1332" y="255"/>
      <point x="1332" y="141" type="curve" smooth="yes"/>
      <point x="1332" y="27"/>
      <point x="1405" y="-38"/>
    </contour>
  </outline>
</glyph>
<glyph name="foursuperior" format="1">
  <advance width="1212"/>
  <unicode hex="2074"/>
  <outline>
    <contour>
      <point x="761" y="461" type="line"/>
      <point x="1012" y="461" type="line"/>
      <point x="1012" y="1124" type="line"/>
      <point x="761" y="1124" type="line"/>
      <point x="761" y="863" type="line"/>
      <point x="473" y="863" type="line"/>
      <point x="473" y="887" type="line"/>
      <point x="750" y="1536" type="line"/>
      <point x="497" y="1536" type="line"/>
      <point x="201" y="880" type="line"/>
      <point x="201" y="672" type="line"/>
      <point x="761" y="672" type="line"/>
    </contour>
  </outline>
</glyph>
<glyph name="Euro" format="1">
  <advance width="1357"/>
  <unicode hex="20AC"/>
  <outline>
    <contour>
      <point x="807" y="-31" type="curve" smooth="yes"/>
      <point x="1126" y="-31"/>
      <point x="1339" y="24"/>
      <point x="1361" y="348" type="curve" smooth="yes"/>
      <point x="1364" y="366"/>
      <point x="1366" y="444"/>
      <point x="1367" y="465" type="curve"/>
      <point x="1034" y="480" type="line"/>
      <point x="1028" y="409"/>
      <point x="1028" y="244"/>
      <point x="1003" y="215" type="curve" smooth="yes"/>
      <point x="978" y="187"/>
      <point x="895" y="175"/>
      <point x="787" y="175" type="curve" smooth="yes"/>
      <point x="598" y="175"/>
      <point x="516" y="206"/>
      <point x="511" y="264" type="curve" smooth="yes"/>
      <point x="508" y="312"/>
      <point x="506" y="525"/>
      <point x="506" y="573" type="curve"/>
      <point x="931" y="573" type="line"/>
      <point x="951" y="696" type="line"/>
      <point x="506" y="696" type="line"/>
      <point x="506" y="831" type="line"/>
      <point x="931" y="831" type="line"/>
      <point x="951" y="954" type="line"/>
      <point x="506" y="954" type="line"/>
      <point x="508" y="1006"/>
      <point x="509" y="1219"/>
      <point x="511" y="1270" type="curve" smooth="yes"/>
      <point x="516" y="1351"/>
      <point x="628" y="1358"/>
      <point x="786" y="1358" type="curve" smooth="yes"/>
      <point x="874" y="1358"/>
      <point x="955" y="1358"/>
      <point x="984" y="1335" type="curve" smooth="yes"/>
      <point x="1013" y="1313"/>
      <point x="1023" y="1147"/>
      <point x="1033" y="1059" type="curve"/>
      <point x="1367" y="1078" type="line"/>
      <point x="1365" y="1094"/>
      <point x="1363" y="1173"/>
      <point x="1361" y="1186" type="curve" smooth="yes"/>
      <point x="1336" y="1521"/>
      <point x="1112" y="1567"/>
      <point x="795" y="1567" type="curve" smooth="yes"/>
      <point x="396" y="1567"/>
      <point x="177" y="1508"/>
      <point x="159" y="1138" type="curve" smooth="yes"/>
      <point x="157" y="1113"/>
      <point x="156" y="983"/>
      <point x="155" y="954" type="curve"/>
      <point x="12" y="954" type="line"/>
      <point x="-9" y="831" type="line"/>
      <point x="154" y="831" type="line"/>
      <point x="154" y="696" type="line"/>
      <point x="12" y="696" type="line"/>
      <point x="-9" y="573" type="line"/>
      <point x="155" y="573" type="line"/>
      <point x="157" y="551"/>
      <point x="158" y="426"/>
      <point x="160" y="406" type="curve" smooth="yes"/>
      <point x="178" y="47"/>
      <point x="409" y="-31"/>
    </contour>
  </outline>
</glyph>
<glyph name="uni2113" format="1">
  <advance width="1189"/>
  <unicode hex="2113"/>
  <outline>
    <contour>
      <point x="669" y="-19" type="curve" smooth="yes"/>
      <point x="760" y="-23"/>
      <point x="929" y="-3"/>
      <point x="930" y="-3" type="curve"/>
      <point x="930" y="175" type="line"/>
      <point x="841" y="170"/>
      <point x="782" y="176"/>
      <point x="740" y="188" type="curve"/>
      <point x="627" y="200"/>
      <point x="614" y="245"/>
      <point x="614" y="311" type="curve" smooth="yes"/>
      <point x="614" y="720" type="line"/>
      <point x="985" y="946"/>
      <point x="1204" y="1177"/>
      <point x="1166" y="1461" type="curve" smooth="yes"/>
      <point x="1141" y="1654"/>
      <point x="981" y="1759"/>
      <point x="796" y="1759" type="curve" smooth="yes"/>
      <point x="555" y="1758"/>
      <point x="287" y="1589"/>
      <point x="287" y="1137" type="curve" smooth="yes"/>
      <point x="287" y="683" type="line"/>
      <point x="120" y="564" type="line"/>
      <point x="120" y="396" type="line"/>
      <point x="287" y="522" type="line"/>
      <point x="287" y="292" type="line" smooth="yes"/>
      <point x="287" y="26"/>
      <point x="432" y="-16"/>
    </contour>
    <contour>
      <point x="614" y="901" type="curve"/>
      <point x="614" y="1221" type="line" smooth="yes"/>
      <point x="614" y="1484"/>
      <point x="701" y="1561"/>
      <point x="816" y="1563" type="curve" smooth="yes"/>
      <point x="913" y="1565"/>
      <point x="961" y="1519"/>
      <point x="971" y="1425" type="curve" smooth="yes"/>
      <point x="1000" y="1170"/>
      <point x="787" y="1001"/>
    </contour>
  </outline>
</glyph>
<glyph name="trademark" format="1">
  <advance width="1478"/>
  <unicode hex="2122"/>
  <outline>
    <contour>
      <point x="653" y="776" type="line"/>
      <point x="859" y="776" type="line"/>
      <point x="859" y="1138" type="line"/>
      <point x="971" y="776" type="line"/>
      <point x="1076" y="776" type="line"/>
      <point x="1191" y="1138" type="line"/>
      <point x="1191" y="776" type="line"/>
      <point x="1404" y="776" type="line"/>
      <point x="1404" y="1536" type="line"/>
      <point x="1147" y="1536" type="line"/>
      <point x="1032" y="1089" type="line"/>
      <point x="908" y="1536" type="line"/>
      <point x="653" y="1536" type="line"/>
    </contour>
    <contour>
      <point x="191" y="776" type="line"/>
      <point x="410" y="776" type="line"/>
      <point x="410" y="1426" type="line"/>
      <point x="568" y="1426" type="line"/>
      <point x="568" y="1536" type="line"/>
      <point x="33" y="1536" type="line"/>
      <point x="33" y="1426" type="line"/>
      <point x="191" y="1426" type="line"/>
    </contour>
  </outline>
</glyph>
<glyph name="estimated" format="1">
  <advance width="1296"/>
  <unicode hex="212E"/>
  <outline>
    <contour>
      <point x="701" y="-20" type="curve" smooth="yes"/>
      <point x="908" y="-20"/>
      <point x="1043" y="70"/>
      <point x="1143" y="188" type="curve"/>
      <point x="1091" y="239" type="line"/>
      <point x="993" y="134"/>
      <point x="881" y="53"/>
      <point x="701" y="53" type="curve" smooth="yes"/>
      <point x="471" y="53"/>
      <point x="388" y="245"/>
      <point x="387" y="521" type="curve"/>
      <point x="1151" y="521" type="line"/>
      <point x="1151" y="869"/>
      <point x="1003" y="1102"/>
      <point x="683" y="1102" type="curve" smooth="yes"/>
      <point x="360" y="1102"/>
      <point x="130" y="861"/>
      <point x="130" y="541" type="curve" smooth="yes"/>
      <point x="130" y="221"/>
      <point x="318" y="-20"/>
    </contour>
    <contour>
      <point x="389" y="601" type="line"/>
      <point x="404" y="863"/>
      <point x="516" y="1042"/>
      <point x="689" y="1042" type="curve" smooth="yes"/>
      <point x="898" y="1042"/>
      <point x="939" y="836"/>
      <point x="939" y="601" type="curve"/>
    </contour>
  </outline>
</glyph>
<glyph name="partialdiff" format="1">
  <advance width="1272"/>
  <unicode hex="2202"/>
  <outline>
    <contour>
      <point x="578" y="-24" type="curve" smooth="yes"/>
      <point x="1032" y="-24"/>
      <point x="1127" y="369"/>
      <point x="1127" y="674" type="curve" smooth="yes"/>
      <point x="1127" y="1092"/>
      <point x="949" y="1432"/>
      <point x="376" y="1432" type="curve"/>
      <point x="358" y="1255" type="line"/>
      <point x="746" y="1255"/>
      <point x="881" y="1030"/>
      <point x="886" y="796" type="curve"/>
      <point x="844" y="863"/>
      <point x="761" y="908"/>
      <point x="654" y="908" type="curve" smooth="yes"/>
      <point x="313" y="908"/>
      <point x="161" y="629"/>
      <point x="161" y="395" type="curve" smooth="yes"/>
      <point x="161" y="161"/>
      <point x="299" y="-24"/>
    </contour>
    <contour>
      <point x="611" y="178" type="curve" smooth="yes"/>
      <point x="505" y="178"/>
      <point x="420" y="255"/>
      <point x="420" y="398" type="curve" smooth="yes"/>
      <point x="420" y="506"/>
      <point x="479" y="704"/>
      <point x="657" y="704" type="curve" smooth="yes"/>
      <point x="736" y="704"/>
      <point x="790" y="665"/>
      <point x="860" y="576" type="curve"/>
      <point x="861" y="567"/>
      <point x="861" y="558"/>
      <point x="861" y="549" type="curve" smooth="yes"/>
      <point x="861" y="446"/>
      <point x="813" y="178"/>
    </contour>
  </outline>
</glyph>
<glyph name="emptyset" format="1">
  <advance width="1762"/>
  <unicode hex="2205"/>
  <outline>
    <contour>
      <point x="308" y="-81" type="line"/>
      <point x="458" y="97" type="line"/>
      <point x="578" y="18"/>
      <point x="723" y="-25"/>
      <point x="879" y="-25" type="curve" smooth="yes"/>
      <point x="1280" y="-25"/>
      <point x="1608" y="297"/>
      <point x="1608" y="696" type="curve" smooth="yes"/>
      <point x="1608" y="895"/>
      <point x="1527" y="1073"/>
      <point x="1398" y="1204" type="curve"/>
      <point x="1549" y="1382" type="line"/>
      <point x="1459" y="1460" type="line"/>
      <point x="1308" y="1281" type="line"/>
      <point x="1187" y="1367"/>
      <point x="1039" y="1419"/>
      <point x="879" y="1419" type="curve" smooth="yes"/>
      <point x="480" y="1419"/>
      <point x="152" y="1127"/>
      <point x="152" y="696" type="curve" smooth="yes"/>
      <point x="152" y="474"/>
      <point x="235" y="292"/>
      <point x="370" y="167" type="curve"/>
      <point x="225" y="-6" type="line"/>
    </contour>
    <contour>
      <point x="462" y="276" type="line"/>
      <point x="361" y="378"/>
      <point x="301" y="524"/>
      <point x="301" y="695" type="curve" smooth="yes"/>
      <point x="301" y="1037"/>
      <point x="550" y="1285"/>
      <point x="879" y="1285" type="curve" smooth="yes"/>
      <point x="1007" y="1285"/>
      <point x="1124" y="1243"/>
      <point x="1218" y="1174" type="curve"/>
    </contour>
    <contour>
      <point x="878" y="109" type="curve" smooth="yes"/>
      <point x="754" y="109"/>
      <point x="641" y="142"/>
      <point x="549" y="204" type="curve"/>
      <point x="1305" y="1095" type="line"/>
      <point x="1401" y="988"/>
      <point x="1459" y="846"/>
      <point x="1459" y="695" type="curve" smooth="yes"/>
      <point x="1459" y="382"/>
      <point x="1208" y="109"/>
    </contour>
  </outline>
</glyph>
<glyph name="product" format="1">
  <advance width="1516"/>
  <unicode hex="220F"/>
  <outline>
    <contour>
      <point x="521" y="1310" type="line"/>
      <point x="995" y="1310" type="line"/>
      <point x="995" y="-62" type="line"/>
      <point x="1364" y="-62" type="line"/>
      <point x="1364" y="1536" type="line"/>
      <point x="152" y="1536" type="line"/>
      <point x="152" y="-62" type="line"/>
      <point x="521" y="-62" type="line"/>
    </contour>
  </outline>
</glyph>
<glyph name="summation" format="1">
  <advance width="1346"/>
  <unicode hex="2211"/>
  <outline>
    <contour>
      <point x="166" y="-10" type="line"/>
      <point x="1209" y="-10" type="line"/>
      <point x="1209" y="219" type="line"/>
      <point x="524" y="219" type="line"/>
      <point x="995" y="704" type="line"/>
      <point x="995" y="805" type="line"/>
      <point x="520" y="1317" type="line"/>
      <point x="1191" y="1317" type="line"/>
      <point x="1191" y="1536" type="line"/>
      <point x="166" y="1536" type="line"/>
      <point x="166" y="1313" type="line"/>
      <point x="664" y="780" type="line"/>
      <point x="166" y="238" type="line"/>
    </contour>
  </outline>
</glyph>
<glyph name="radical" format="1">
  <advance width="1387"/>
  <unicode hex="221A"/>
  <outline>
    <contour>
      <point x="513" y="0" type="line"/>
      <point x="662" y="0" type="line"/>
      <point x="1295" y="1464" type="line"/>
      <point x="1065" y="1464" type="line"/>
      <point x="569" y="251" type="line"/>
      <point x="352" y="658" type="line"/>
      <point x="127" y="658" type="line"/>
    </contour>
  </outline>
</glyph>
<glyph name="infinity" format="1">
  <advance width="1676"/>
  <unicode hex="221E"/>
  <outline>
    <contour>
      <point x="1209" y="296" type="curve" smooth="yes"/>
      <point x="1466" y="295"/>
      <point x="1595" y="518"/>
      <point x="1595" y="738" type="curve" smooth="yes"/>
      <point x="1595" y="952"/>
      <point x="1473" y="1164"/>
      <point x="1225" y="1170" type="curve" smooth="yes"/>
      <point x="1079" y="1173"/>
      <point x="917" y="1084"/>
      <point x="826" y="953" type="curve"/>
      <point x="764" y="1074"/>
      <point x="619" y="1159"/>
      <point x="473" y="1159" type="curve" smooth="yes"/>
      <point x="209" y="1159"/>
      <point x="77" y="945"/>
      <point x="77" y="732" type="curve" smooth="yes"/>
      <point x="77" y="516"/>
      <point x="210" y="300"/>
      <point x="475" y="300" type="curve" smooth="yes"/>
      <point x="617" y="300"/>
      <point x="752" y="395"/>
      <point x="799" y="533" type="curve"/>
      <point x="874" y="393"/>
      <point x="1041" y="296"/>
    </contour>
    <contour>
      <point x="473" y="516" type="curve" smooth="yes"/>
      <point x="332" y="516"/>
      <point x="262" y="622"/>
      <point x="262" y="729" type="curve" smooth="yes"/>
      <point x="262" y="834"/>
      <point x="331" y="939"/>
      <point x="469" y="939" type="curve" smooth="yes"/>
      <point x="573" y="939"/>
      <point x="683" y="836"/>
      <point x="735" y="689" type="curve"/>
      <point x="679" y="587"/>
      <point x="571" y="516"/>
    </contour>
    <contour>
      <point x="1205" y="509" type="curve" smooth="yes"/>
      <point x="1075" y="509"/>
      <point x="948" y="632"/>
      <point x="893" y="809" type="curve"/>
      <point x="953" y="889"/>
      <point x="1068" y="942"/>
      <point x="1179" y="942" type="curve" smooth="yes"/>
      <point x="1266" y="942"/>
      <point x="1410" y="894"/>
      <point x="1410" y="719" type="curve" smooth="yes"/>
      <point x="1410" y="612"/>
      <point x="1342" y="509"/>
    </contour>
  </outline>
</glyph>
<glyph name="integral" format="1">
  <advance width="1107"/>
  <unicode hex="222B"/>
  <outline>
    <contour>
      <point x="321" y="-304" type="curve" smooth="yes"/>
      <point x="502" y="-304"/>
      <point x="618" y="-255"/>
      <point x="643" y="36" type="curve" smooth="yes"/>
      <point x="756" y="1343" type="line" smooth="yes"/>
      <point x="768" y="1479"/>
      <point x="783" y="1504"/>
      <point x="868" y="1504" type="curve" smooth="yes"/>
      <point x="898" y="1504"/>
      <point x="939" y="1492"/>
      <point x="970" y="1475" type="curve"/>
      <point x="1039" y="1623" type="line"/>
      <point x="995" y="1648"/>
      <point x="912" y="1674"/>
      <point x="856" y="1674" type="curve" smooth="yes"/>
      <point x="675" y="1674"/>
      <point x="560" y="1625"/>
      <point x="535" y="1334" type="curve" smooth="yes"/>
      <point x="421" y="27" type="line" smooth="yes"/>
      <point x="409" y="-109"/>
      <point x="394" y="-134"/>
      <point x="309" y="-134" type="curve" smooth="yes"/>
      <point x="279" y="-134"/>
      <point x="238" y="-123"/>
      <point x="207" y="-105" type="curve"/>
      <point x="138" y="-254" type="line"/>
      <point x="182" y="-278"/>
      <point x="265" y="-304"/>
    </contour>
  </outline>
</glyph>
<glyph name="lessequal" format="1">
  <advance width="1168"/>
  <unicode hex="2264"/>
  <outline>
    <contour>
      <point x="1042" y="323" type="line"/>
      <point x="1042" y="610" type="line"/>
      <point x="380" y="763" type="line"/>
      <point x="1042" y="905" type="line"/>
      <point x="1042" y="1218" type="line"/>
      <point x="120" y="908" type="line"/>
      <point x="120" y="614" type="line"/>
    </contour>
    <contour>
      <point x="116" y="0" type="line"/>
      <point x="1049" y="0" type="line"/>
      <point x="1049" y="225" type="line"/>
      <point x="116" y="225" type="line"/>
    </contour>
  </outline>
</glyph>
<glyph name="greaterequal" format="1">
  <advance width="1169"/>
  <unicode hex="2265"/>
  <outline>
    <contour>
      <point x="117" y="323" type="line"/>
      <point x="1039" y="611" type="line"/>
      <point x="1039" y="906" type="line"/>
      <point x="117" y="1225" type="line"/>
      <point x="117" y="924" type="line"/>
      <point x="780" y="767" type="line"/>
      <point x="117" y="622" type="line"/>
    </contour>
    <contour>
      <point x="119" y="0" type="line"/>
      <point x="1052" y="0" type="line"/>
      <point x="1052" y="225" type="line"/>
      <point x="119" y="225" type="line"/>
    </contour>
  </outline>
</glyph>
